<?xml version="1.0" encoding="utf-8"?>
<!-- Generator: Adobe Illustrator 25.2.1, SVG Export Plug-In . SVG Version: 6.00 Build 0)  -->
<svg version="1.1" id="Layer_1" xmlns="http://www.w3.org/2000/svg" xmlns:xlink="http://www.w3.org/1999/xlink" x="0px" y="0px"
	 viewBox="0 0 1200 100" style="enable-background:new 0 0 1200 100;" xml:space="preserve">
<style type="text/css">
	.st0{fill:#231F20;}
</style>
<g>
	<g>
		<path class="st0" d="M756.8,50.7c0,1.3,0,2.4,0,3.1c0,0.7,0,1.2,0,1.4c0,1.4-0.1,2.8-0.4,4.1c-0.3,1.3-0.9,2.5-1.9,3.8
			c-0.8,1-1.6,1.7-2.4,2.2s-1.6,0.7-2.3,0.7c-0.6,0-1.1-0.2-1.4-0.6c-0.3-0.4-0.5-0.9-0.5-1.5c0-0.5,0.1-0.9,0.4-1.2
			c0.3-0.3,0.6-0.4,0.9-0.4c0.3,0,0.6,0.1,0.8,0.3c0.2,0.2,0.4,0.4,0.5,0.7c0.1,0.2,0.3,0.5,0.5,0.7c0.2,0.2,0.4,0.3,0.6,0.3
			c0.3,0,0.7-0.2,1.1-0.7c0.4-0.4,0.8-1.1,1.1-2c0.2-0.7,0.3-1.6,0.4-2.6c0-1,0.1-2.2,0.1-3.6v-17c0-0.6,0-1-0.1-1.2
			c-0.1-0.2-0.3-0.4-0.8-0.5c-0.3-0.1-0.6-0.1-0.8-0.1c-0.2,0-0.4,0-0.6-0.1c-0.2,0-0.3-0.1-0.4-0.1c-0.1-0.1-0.1-0.2-0.1-0.4
			c0-0.3,0.2-0.5,0.6-0.5c0.3,0,0.8,0,1.3,0.1c0.6,0.1,1.3,0.1,2.1,0.1c0.9,0,1.6,0,2.2-0.1c0.6-0.1,1-0.1,1.2-0.1
			c0.4,0,0.6,0.2,0.6,0.5c0,0.3-0.2,0.5-0.5,0.5c-0.3,0-0.7,0-1.1,0.1c-0.5,0.1-0.7,0.3-0.8,0.5c-0.1,0.2-0.1,0.6-0.1,1.2V50.7z"/>
		<path class="st0" d="M780.9,35.6c0.4,0,0.7,0,0.9,0c0.2,0,0.4,0.1,0.5,0.1c0.1,0.1,0.2,0.2,0.2,0.4c0,0.2,0,0.4,0,0.7v3.4
			c0,0.5-0.1,0.8-0.4,0.8c-0.1,0-0.3-0.1-0.3-0.2c-0.1-0.1-0.2-0.3-0.2-0.5c-0.1-0.2-0.2-0.5-0.3-0.8c-0.1-0.3-0.3-0.6-0.6-0.9
			c-0.5-0.7-1-1.1-1.6-1.4c-0.6-0.3-1.3-0.4-2.2-0.4c-0.6,0-1.2,0-1.6,0.1c-0.4,0.1-0.7,0.2-1,0.4c-0.2,0.2-0.4,0.5-0.5,0.8
			c-0.1,0.3-0.1,0.7-0.1,1.2v5.8c0,0.3,0,0.5,0.1,0.6c0.1,0.1,0.3,0.1,0.6,0.1h1.9c0.7,0,1.3-0.1,1.8-0.2c0.5-0.1,0.8-0.3,1-0.5
			c0.2-0.2,0.4-0.5,0.5-0.8c0.1-0.3,0.2-0.5,0.2-0.7c0-0.2,0.1-0.4,0.1-0.5c0-0.1,0.2-0.2,0.3-0.2c0.3,0,0.4,0.2,0.4,0.7
			c0,0.2,0,0.6-0.1,1.1c-0.1,0.5-0.1,1.3-0.1,2.2c0,1.1,0,2,0,2.6c0,0.6,0,0.9,0,1c0,0.4-0.1,0.7-0.4,0.7c-0.2,0-0.3-0.1-0.3-0.2
			c0-0.1-0.1-0.4-0.1-0.6s-0.1-0.6-0.2-0.9c-0.1-0.4-0.3-0.8-0.5-1.2c-0.5-0.8-1.4-1.3-2.8-1.3h-2c-0.2,0-0.4,0.1-0.4,0.1
			c0,0.1-0.1,0.3-0.1,0.5v8.1c0,0.4,0,0.7,0,1c0,0.2,0.1,0.4,0.2,0.6c0.1,0.1,0.2,0.3,0.4,0.4c0.2,0.1,0.4,0.2,0.8,0.2
			c0.2,0,0.4,0.1,0.6,0.1c0.2,0,0.4,0,0.6,0c0.2,0,0.3,0.1,0.4,0.1c0.1,0.1,0.1,0.2,0.1,0.4c0,0.4-0.3,0.6-1,0.6
			c-0.4,0-0.8,0-1.4-0.1c-0.6-0.1-1.3-0.1-2-0.1s-1.4,0-2,0.1c-0.5,0.1-0.9,0.1-1.1,0.1c-0.5,0-0.8-0.2-0.8-0.6c0-0.2,0-0.3,0.1-0.4
			s0.2-0.1,0.3-0.1c0.1,0,0.3,0,0.5,0s0.3,0,0.5-0.1c0.6-0.1,0.9-0.4,1-0.7c0.1-0.3,0.2-0.8,0.2-1.6V38.6c0-0.6,0-1-0.1-1.2
			c-0.1-0.2-0.3-0.4-0.7-0.5c-0.2-0.1-0.4-0.1-0.7-0.1c-0.2,0-0.4,0-0.5,0c-0.2,0-0.3-0.1-0.4-0.1c-0.1-0.1-0.1-0.2-0.1-0.4
			c0-0.3,0.2-0.5,0.7-0.5h3.7H780.9z"/>
		<path class="st0" d="M793.4,42.7c0.9,0.4,1.7,1,2.3,1.8c0.6,0.8,1.1,1.7,1.4,2.8c0.3,1.1,0.5,2.3,0.5,3.6c0,1.3-0.2,2.6-0.5,3.7
			c-0.3,1.1-0.8,2-1.5,2.8c-0.7,0.8-1.4,1.4-2.4,1.8c-0.9,0.4-2,0.6-3.2,0.6c-1.1,0-2-0.2-2.9-0.7c-0.9-0.4-1.6-1-2.2-1.8
			c-0.6-0.8-1.1-1.7-1.4-2.8c-0.3-1.1-0.5-2.3-0.5-3.6c0-1.3,0.2-2.6,0.5-3.7c0.4-1.1,0.9-2,1.5-2.8c0.7-0.8,1.4-1.4,2.3-1.8
			c0.9-0.4,1.8-0.6,2.9-0.6C791.4,42.1,792.5,42.3,793.4,42.7z M786.7,44.8c-0.9,1.4-1.3,3.3-1.3,6c0,1.3,0.1,2.5,0.4,3.5
			c0.2,1,0.6,1.9,1,2.7c0.4,0.7,1,1.3,1.6,1.7c0.6,0.4,1.3,0.6,2,0.6c1.6,0,2.8-0.7,3.7-2c0.9-1.3,1.3-3.3,1.3-5.8
			c0-2.7-0.4-4.9-1.3-6.3c-0.9-1.5-2.1-2.2-3.6-2.2C788.8,42.7,787.6,43.4,786.7,44.8z"/>
		<path class="st0" d="M802.6,48.6c-0.3,0-0.5,0.1-0.6,0.3c-0.1,0.2-0.1,0.6-0.1,1.2c0,1.2,0.1,2.3,0.4,3.3c0.3,1,0.7,1.8,1.2,2.5
			c0.5,0.7,1.1,1.2,1.8,1.5c0.7,0.4,1.5,0.5,2.3,0.5c0.8,0,1.4-0.1,1.9-0.4c0.5-0.2,1-0.5,1.3-0.8c0.3-0.3,0.6-0.6,0.8-0.8
			c0.2-0.2,0.3-0.4,0.4-0.4c0.2,0,0.3,0.1,0.3,0.3c0,0.3-0.1,0.6-0.4,1.1s-0.7,0.9-1.2,1.3c-0.5,0.4-1.1,0.8-1.8,1.1
			c-0.7,0.3-1.5,0.4-2.4,0.4c-1,0-1.9-0.2-2.8-0.6c-0.8-0.4-1.6-1-2.2-1.8c-0.6-0.8-1.1-1.7-1.4-2.8c-0.3-1.1-0.5-2.3-0.5-3.7
			c0-1.4,0.2-2.6,0.6-3.7c0.4-1.1,0.9-2,1.6-2.8c0.7-0.8,1.4-1.4,2.3-1.8c0.9-0.4,1.8-0.6,2.8-0.6c0.9,0,1.6,0.2,2.3,0.5
			c0.7,0.3,1.3,0.8,1.8,1.3c0.5,0.5,0.8,1.2,1.1,1.9c0.3,0.7,0.4,1.4,0.4,2.2c0,0.3-0.1,0.5-0.2,0.6c-0.2,0.1-0.4,0.2-0.9,0.2H802.6
			z M809,47.5c0.7-0.2,1.1-0.6,1.1-1.4c0-0.4-0.1-0.8-0.3-1.2c-0.2-0.4-0.4-0.8-0.7-1.1s-0.7-0.6-1.1-0.8s-0.9-0.3-1.3-0.3
			c-0.6,0-1.2,0.1-1.7,0.5c-0.5,0.3-1,0.7-1.4,1.1c-0.4,0.5-0.7,1-1,1.5c-0.2,0.6-0.4,1.1-0.4,1.6c0,0.1,0,0.2,0.1,0.2
			c0.1,0.1,0.2,0.1,0.3,0.1h3C807.1,47.8,808.3,47.7,809,47.5z"/>
		<path class="st0" d="M818,45.1c0,0.2,0,0.3,0.1,0.3c0.1,0,0.2-0.1,0.3-0.2l0.7-1c1-1.4,2.1-2.1,3.3-2.1c0.6,0,1.1,0.2,1.4,0.5
			c0.3,0.3,0.5,0.8,0.5,1.2c0,0.5-0.1,0.9-0.4,1.2c-0.3,0.3-0.5,0.5-0.9,0.5c-0.2,0-0.5-0.1-0.6-0.2c-0.2-0.1-0.4-0.3-0.6-0.5
			c-0.2-0.2-0.4-0.4-0.6-0.5c-0.2-0.1-0.4-0.2-0.7-0.2c-0.3,0-0.5,0.1-0.8,0.3c-0.3,0.2-0.5,0.6-0.8,1.1c-0.2,0.5-0.4,1.1-0.6,1.8
			s-0.2,1.6-0.2,2.7V56c0,0.6,0,1.1,0.1,1.4c0.1,0.3,0.3,0.5,0.7,0.6c0.3,0.1,0.6,0.2,0.8,0.2c0.2,0,0.5,0,0.6,0.1
			c0.2,0,0.3,0,0.4,0.1c0.1,0,0.1,0.1,0.1,0.3c0,0.3-0.2,0.4-0.6,0.4c-0.3,0-0.8,0-1.3-0.1c-0.6-0.1-1.2-0.1-2-0.1
			c-0.5,0-0.9,0-1.3,0.1c-0.4,0-0.8,0.1-1,0.1c-0.2,0-0.3,0-0.4-0.1c-0.1,0-0.1-0.1-0.1-0.3c0-0.2,0.1-0.4,0.3-0.4
			c0.2,0,0.5-0.1,0.9-0.2c0.3-0.1,0.5-0.3,0.6-0.6c0.1-0.3,0.1-0.8,0.1-1.4v-9.8c0-0.4-0.1-0.7-0.2-0.9s-0.3-0.2-0.5-0.3
			s-0.4,0-0.5,0s-0.2-0.1-0.2-0.3c0-0.2,0.1-0.4,0.4-0.5c0.3-0.1,0.5-0.3,0.9-0.5c0.6-0.4,1-0.8,1.3-1.2c0.3-0.4,0.5-0.6,0.7-0.6
			c0.1,0,0.2,0.1,0.2,0.2c0,0.2,0,0.4,0,0.7V45.1z"/>
		<path class="st0" d="M832.4,42.2c0.4,0.1,0.8,0.2,1,0.4s0.3,0.4,0.4,0.6c0,0.2,0.1,0.4,0.1,0.7v1.5c0,0.5-0.1,0.7-0.3,0.7
			c-0.2,0-0.3-0.2-0.4-0.5c0-0.3-0.2-0.7-0.5-1.3c-0.3-0.5-0.7-1-1.2-1.2c-0.5-0.3-1-0.4-1.5-0.4c-0.7,0-1.3,0.3-1.8,0.8
			c-0.5,0.5-0.7,1.2-0.7,2c0,0.9,0.2,1.5,0.7,2c0.5,0.5,1.2,1,2.2,1.5c0.6,0.3,1.2,0.6,1.7,0.9c0.5,0.3,1,0.6,1.3,1
			c0.4,0.4,0.7,0.8,0.9,1.3s0.3,1.1,0.3,1.9c0,1.8-0.5,3.1-1.4,4.2c-1,1-2.3,1.5-4.1,1.5c-0.5,0-1-0.1-1.5-0.1
			c-0.5-0.1-0.9-0.2-1.3-0.4c-0.4-0.2-0.7-0.4-0.9-0.6c-0.2-0.2-0.4-0.5-0.4-0.8c0-0.2,0-0.6,0-1.1s0-1.2,0-2.1
			c0-0.4,0.1-0.6,0.4-0.6c0.2,0,0.4,0.2,0.4,0.6c0.1,0.4,0.2,1,0.4,1.9c0.2,0.9,0.6,1.6,1,2c0.4,0.5,1.1,0.7,2,0.7
			c1,0,1.9-0.3,2.5-1c0.6-0.7,0.9-1.6,0.9-2.7c0-1-0.3-1.8-0.8-2.3c-0.5-0.6-1.4-1.1-2.5-1.6c-1.4-0.6-2.4-1.3-3-2
			c-0.7-0.7-1-1.6-1-2.6c0-1.4,0.4-2.6,1.3-3.5c0.9-0.9,2.1-1.3,3.7-1.3C831.4,42.1,832,42.1,832.4,42.2z"/>
		<path class="st0" d="M840.6,42.1c0,0.2,0,0.4,0.1,0.5c0.1,0.1,0.2,0.1,0.4,0.1h2.7c0.2,0,0.4,0,0.4,0.1c0,0.1,0.1,0.2,0.1,0.4v0.1
			c0,0.2,0,0.4-0.1,0.5c-0.1,0.1-0.2,0.1-0.4,0.1h-2.8c-0.2,0-0.4,0-0.4,0.1c-0.1,0.1-0.1,0.3-0.1,0.5v10.9c0,1.9,0.6,2.8,1.8,2.8
			c0.3,0,0.6-0.1,0.9-0.2c0.3-0.1,0.5-0.3,0.7-0.5c0.2-0.2,0.4-0.3,0.5-0.5s0.3-0.2,0.3-0.2c0.1,0,0.1,0.1,0.1,0.3
			c0,0.1-0.1,0.3-0.3,0.6s-0.4,0.6-0.8,0.9s-0.7,0.5-1.1,0.8c-0.4,0.2-0.9,0.3-1.3,0.3c-1,0-1.7-0.4-2.2-1.2
			c-0.5-0.8-0.8-1.9-0.8-3.4v-1.8l0.1-8.9c0-0.2,0-0.4-0.1-0.5c-0.1-0.1-0.2-0.1-0.4-0.1h-0.6c-0.4,0-0.6-0.1-0.6-0.3
			c0-0.2,0.2-0.4,0.6-0.7c0.4-0.3,0.8-0.8,1.4-1.4s0.9-1.2,1.1-1.7c0.2-0.5,0.4-0.7,0.5-0.7c0.1,0,0.1,0.1,0.1,0.4v0.6V42.1z"/>
		<path class="st0" d="M849.3,48.6c-0.3,0-0.5,0.1-0.6,0.3c-0.1,0.2-0.1,0.6-0.1,1.2c0,1.2,0.1,2.3,0.4,3.3c0.3,1,0.7,1.8,1.2,2.5
			c0.5,0.7,1.1,1.2,1.8,1.5c0.7,0.4,1.5,0.5,2.3,0.5c0.8,0,1.4-0.1,1.9-0.4c0.5-0.2,1-0.5,1.3-0.8c0.3-0.3,0.6-0.6,0.8-0.8
			c0.2-0.2,0.3-0.4,0.4-0.4c0.2,0,0.3,0.1,0.3,0.3c0,0.3-0.1,0.6-0.4,1.1s-0.7,0.9-1.2,1.3c-0.5,0.4-1.1,0.8-1.8,1.1
			c-0.7,0.3-1.5,0.4-2.4,0.4c-1,0-1.9-0.2-2.8-0.6c-0.8-0.4-1.6-1-2.2-1.8c-0.6-0.8-1.1-1.7-1.4-2.8c-0.3-1.1-0.5-2.3-0.5-3.7
			c0-1.4,0.2-2.6,0.6-3.7c0.4-1.1,0.9-2,1.6-2.8c0.7-0.8,1.4-1.4,2.3-1.8c0.9-0.4,1.8-0.6,2.8-0.6c0.9,0,1.6,0.2,2.3,0.5
			c0.7,0.3,1.3,0.8,1.8,1.3c0.5,0.5,0.8,1.2,1.1,1.9c0.3,0.7,0.4,1.4,0.4,2.2c0,0.3-0.1,0.5-0.2,0.6c-0.2,0.1-0.4,0.2-0.9,0.2H849.3
			z M855.8,47.5c0.7-0.2,1.1-0.6,1.1-1.4c0-0.4-0.1-0.8-0.3-1.2c-0.2-0.4-0.4-0.8-0.7-1.1s-0.7-0.6-1.1-0.8s-0.9-0.3-1.3-0.3
			c-0.6,0-1.2,0.1-1.7,0.5c-0.5,0.3-1,0.7-1.4,1.1c-0.4,0.5-0.7,1-1,1.5c-0.2,0.6-0.4,1.1-0.4,1.6c0,0.1,0,0.2,0.1,0.2
			c0.1,0.1,0.2,0.1,0.3,0.1h3C853.9,47.8,855,47.7,855.8,47.5z"/>
		<path class="st0" d="M864.8,45.1c0,0.2,0,0.3,0.1,0.3c0.1,0,0.2-0.1,0.3-0.2l0.7-1c1-1.4,2.1-2.1,3.3-2.1c0.6,0,1.1,0.2,1.4,0.5
			c0.3,0.3,0.5,0.8,0.5,1.2c0,0.5-0.1,0.9-0.4,1.2c-0.3,0.3-0.5,0.5-0.9,0.5c-0.2,0-0.5-0.1-0.6-0.2c-0.2-0.1-0.4-0.3-0.6-0.5
			c-0.2-0.2-0.4-0.4-0.6-0.5c-0.2-0.1-0.4-0.2-0.7-0.2c-0.3,0-0.5,0.1-0.8,0.3c-0.3,0.2-0.5,0.6-0.8,1.1c-0.2,0.5-0.4,1.1-0.6,1.8
			s-0.2,1.6-0.2,2.7V56c0,0.6,0,1.1,0.1,1.4c0.1,0.3,0.3,0.5,0.7,0.6c0.3,0.1,0.6,0.2,0.8,0.2c0.2,0,0.5,0,0.6,0.1
			c0.2,0,0.3,0,0.4,0.1c0.1,0,0.1,0.1,0.1,0.3c0,0.3-0.2,0.4-0.6,0.4c-0.3,0-0.8,0-1.3-0.1c-0.6-0.1-1.2-0.1-2-0.1
			c-0.5,0-0.9,0-1.3,0.1c-0.4,0-0.8,0.1-1,0.1c-0.2,0-0.3,0-0.4-0.1c-0.1,0-0.1-0.1-0.1-0.3c0-0.2,0.1-0.4,0.3-0.4
			c0.2,0,0.5-0.1,0.9-0.2c0.3-0.1,0.5-0.3,0.6-0.6c0.1-0.3,0.1-0.8,0.1-1.4v-9.8c0-0.4-0.1-0.7-0.2-0.9s-0.3-0.2-0.5-0.3
			s-0.4,0-0.5,0s-0.2-0.1-0.2-0.3c0-0.2,0.1-0.4,0.4-0.5c0.3-0.1,0.5-0.3,0.9-0.5c0.6-0.4,1-0.8,1.3-1.2c0.3-0.4,0.5-0.6,0.7-0.6
			c0.1,0,0.2,0.1,0.2,0.2c0,0.2,0,0.4,0,0.7V45.1z"/>
		<path class="st0" d="M877.7,62.6L889,35h1.2l-11.4,27.6H877.7z"/>
		<path class="st0" d="M900.9,35.6c0.2,0,0.4,0,0.5,0.1c0.1,0.1,0.2,0.2,0.4,0.4l9.8,16.6c0.2,0.3,0.3,0.4,0.4,0.4
			c0.1,0,0.2-0.2,0.2-0.5v-9.9c0-1.7,0-3-0.1-3.9c0-0.9-0.2-1.5-0.6-1.8c-0.1-0.1-0.3-0.2-0.6-0.2c-0.2,0-0.4,0-0.6,0
			c-0.2,0-0.4,0-0.5-0.1c-0.1-0.1-0.2-0.2-0.2-0.4c0-0.4,0.3-0.6,0.8-0.6c0.3,0,0.6,0,0.9,0.1s0.7,0.1,1.2,0.1c0.5,0,0.9,0,1.3-0.1
			s0.7-0.1,0.9-0.1c0.6,0,0.8,0.2,0.8,0.6c0,0.2,0,0.3-0.1,0.4c-0.1,0.1-0.3,0.1-0.5,0.1h-0.4c-0.3,0-0.6,0.1-0.8,0.3
			c-0.2,0.2-0.3,0.5-0.4,0.9c-0.1,0.4-0.2,0.9-0.2,1.5s0,1.4,0,2.3v17.5c0,0.2-0.1,0.3-0.2,0.3c-0.1,0-0.2-0.1-0.3-0.3L900.8,39
			c-0.1-0.2-0.2-0.3-0.4-0.3c-0.1,0-0.1,0.2-0.1,0.6v13.2c0,1,0,1.8,0,2.5c0,0.7,0.1,1.2,0.2,1.7c0.1,0.4,0.2,0.7,0.4,0.9
			c0.2,0.2,0.4,0.3,0.8,0.3c0,0,0.1,0,0.3,0c0.1,0,0.3,0,0.4,0c0.3,0,0.5,0.2,0.5,0.6c0,0.4-0.3,0.6-0.9,0.6c-0.3,0-0.6,0-1-0.1
			c-0.3,0-0.7-0.1-1.1-0.1c-0.5,0-0.9,0-1.3,0.1c-0.4,0.1-0.7,0.1-1,0.1c-0.6,0-0.8-0.2-0.8-0.6c0-0.3,0.2-0.5,0.5-0.5
			c0.1,0,0.2,0,0.3,0c0.1,0,0.2,0,0.4,0c0.3,0,0.6-0.1,0.8-0.3c0.2-0.2,0.3-0.5,0.4-0.9c0.1-0.4,0.2-1,0.2-1.7c0-0.7,0-1.5,0-2.5
			V38.5c0-0.6,0-1-0.1-1.2c-0.1-0.2-0.3-0.4-0.6-0.5c-0.2-0.1-0.4-0.1-0.6-0.1c-0.2,0-0.4,0-0.5,0c-0.1,0-0.2,0-0.3-0.1
			c-0.1-0.1-0.1-0.2-0.1-0.4c0-0.3,0.2-0.5,0.5-0.5H900.9z"/>
		<path class="st0" d="M929.5,46.7c0,0.2,0,0.4,0.1,0.4c0,0,0.2-0.1,0.4-0.4l6.3-8.1c0.3-0.4,0.4-0.7,0.4-1c0-0.3-0.1-0.5-0.3-0.6
			c-0.2-0.1-0.4-0.1-0.7-0.2c-0.2,0-0.5-0.1-0.7-0.1c-0.2,0-0.3-0.2-0.3-0.4c0-0.3,0.2-0.5,0.5-0.5c0.2,0,0.6,0,1.1,0.1
			c0.5,0.1,1.1,0.1,1.8,0.1c0.8,0,1.5,0,1.9-0.1c0.5-0.1,0.8-0.1,1.1-0.1c0.3,0,0.5,0.2,0.5,0.5c0,0.2-0.1,0.3-0.3,0.4
			c-0.2,0-0.5,0.1-0.8,0.2c-0.4,0.1-0.8,0.3-1.3,0.7c-0.5,0.3-1.1,0.9-1.8,1.8l-4.4,5.3c-0.1,0.1-0.2,0.3-0.2,0.4
			c0,0.1,0,0.1,0.1,0.2l6.5,10.6c0.3,0.6,0.7,1,1,1.4c0.3,0.3,0.6,0.6,1,0.7c0.2,0.1,0.3,0.1,0.5,0.1c0.2,0,0.3,0,0.4,0.1
			c0.1,0,0.2,0,0.3,0.1c0.1,0.1,0.1,0.2,0.1,0.4c0,0.3-0.3,0.5-0.8,0.5c-0.3,0-0.7,0-1.2-0.1c-0.5-0.1-1.2-0.1-1.9-0.1
			c-0.7,0-1.2,0-1.7,0.1c-0.4,0.1-0.8,0.1-1,0.1c-0.3,0-0.5-0.1-0.6-0.2s-0.2-0.2-0.2-0.4c0-0.3,0.3-0.5,0.8-0.5
			c0.7,0,1.1-0.2,1.1-0.6c0-0.2-0.1-0.5-0.3-1c-0.2-0.5-0.5-1-0.9-1.7l-4.7-7.6c-0.1-0.2-0.2-0.3-0.3-0.3c-0.1,0-0.2,0.1-0.3,0.2
			l-1,1.3c-0.1,0.1-0.2,0.3-0.2,0.4c0,0.1-0.1,0.3-0.1,0.5v6.2c0,0.4,0,0.7,0,1s0.1,0.5,0.1,0.6c0.1,0.2,0.2,0.3,0.4,0.4
			s0.4,0.2,0.7,0.3c0.2,0,0.3,0.1,0.5,0.1c0.2,0,0.4,0,0.5,0.1c0.1,0,0.2,0.1,0.3,0.2c0.1,0.1,0.1,0.2,0.1,0.4
			c0,0.3-0.3,0.5-0.8,0.5c-0.3,0-0.7,0-1.2-0.1c-0.5-0.1-1.2-0.1-2-0.1s-1.5,0-2,0.1c-0.5,0.1-0.9,0.1-1.2,0.1
			c-0.5,0-0.8-0.2-0.8-0.6c0-0.2,0-0.3,0.1-0.4s0.2-0.1,0.4-0.1c0.1,0,0.3,0,0.5,0s0.4,0,0.6-0.1c0.3-0.1,0.5-0.2,0.7-0.2
			c0.2-0.1,0.3-0.2,0.4-0.4c0.1-0.2,0.1-0.4,0.1-0.6c0-0.2,0-0.6,0-1V38.6c0-0.6,0-1-0.1-1.2c-0.1-0.2-0.3-0.4-0.7-0.5
			c-0.2-0.1-0.5-0.1-0.7-0.1c-0.2,0-0.4,0-0.5,0c-0.2,0-0.3-0.1-0.4-0.1c-0.1-0.1-0.1-0.2-0.1-0.4c0-0.3,0.2-0.5,0.6-0.5
			c0.3,0,0.7,0,1.2,0.1c0.5,0.1,1.2,0.1,2,0.1c0.9,0,1.6,0,2.1-0.1c0.5-0.1,0.9-0.1,1.2-0.1c0.4,0,0.6,0.2,0.6,0.5
			c0,0.2,0,0.3-0.1,0.4c-0.1,0.1-0.2,0.1-0.3,0.1c-0.1,0-0.3,0-0.5,0.1c-0.2,0-0.4,0-0.6,0.1c-0.5,0.1-0.7,0.3-0.8,0.5
			c-0.1,0.2-0.1,0.7-0.1,1.2V46.7z"/>
		<path class="st0" d="M946.5,45.1c0,0.2,0,0.3,0.1,0.3c0.1,0,0.2-0.1,0.3-0.2l0.7-1c1-1.4,2.1-2.1,3.3-2.1c0.6,0,1.1,0.2,1.4,0.5
			c0.3,0.3,0.5,0.8,0.5,1.2c0,0.5-0.1,0.9-0.4,1.2c-0.3,0.3-0.5,0.5-0.9,0.5c-0.2,0-0.5-0.1-0.6-0.2c-0.2-0.1-0.4-0.3-0.6-0.5
			c-0.2-0.2-0.4-0.4-0.6-0.5c-0.2-0.1-0.4-0.2-0.7-0.2c-0.3,0-0.5,0.1-0.8,0.3c-0.3,0.2-0.5,0.6-0.8,1.1c-0.2,0.5-0.4,1.1-0.6,1.8
			s-0.2,1.6-0.2,2.7V56c0,0.6,0,1.1,0.1,1.4c0.1,0.3,0.3,0.5,0.7,0.6c0.3,0.1,0.6,0.2,0.8,0.2c0.2,0,0.5,0,0.6,0.1
			c0.2,0,0.3,0,0.4,0.1c0.1,0,0.1,0.1,0.1,0.3c0,0.3-0.2,0.4-0.6,0.4c-0.3,0-0.8,0-1.3-0.1c-0.6-0.1-1.2-0.1-2-0.1
			c-0.5,0-0.9,0-1.3,0.1c-0.4,0-0.8,0.1-1,0.1c-0.2,0-0.3,0-0.4-0.1c-0.1,0-0.1-0.1-0.1-0.3c0-0.2,0.1-0.4,0.3-0.4
			c0.2,0,0.5-0.1,0.9-0.2c0.3-0.1,0.5-0.3,0.6-0.6c0.1-0.3,0.1-0.8,0.1-1.4v-9.8c0-0.4-0.1-0.7-0.2-0.9s-0.3-0.2-0.5-0.3
			s-0.4,0-0.5,0s-0.2-0.1-0.2-0.3c0-0.2,0.1-0.4,0.4-0.5c0.3-0.1,0.5-0.3,0.9-0.5c0.6-0.4,1-0.8,1.3-1.2c0.3-0.4,0.5-0.6,0.7-0.6
			c0.1,0,0.2,0.1,0.2,0.2c0,0.2,0,0.4,0,0.7V45.1z"/>
		<path class="st0" d="M963.3,55.6c0,1.5,0.3,2.3,1,2.3c0.3,0,0.5-0.1,0.8-0.4c0.2-0.3,0.4-0.4,0.6-0.4c0.2,0,0.3,0.1,0.3,0.3
			c0,0.2-0.1,0.4-0.3,0.7s-0.5,0.5-0.8,0.8c-0.3,0.2-0.6,0.5-0.9,0.6c-0.3,0.2-0.6,0.2-0.9,0.2c-0.5,0-0.9-0.2-1.1-0.6
			c-0.3-0.4-0.5-1-0.7-1.9H961c-0.9,0.8-1.8,1.4-2.5,1.9s-1.5,0.7-2.3,0.7c-0.9,0-1.6-0.3-2.1-0.8c-0.5-0.5-0.7-1.2-0.7-2.1
			c0-0.7,0.2-1.3,0.5-2c0.3-0.6,0.8-1.2,1.5-1.8c0.7-0.6,1.5-1.2,2.4-1.8c1-0.6,2.1-1.3,3.3-2V46c0-1.1-0.1-2-0.3-2.5
			c-0.2-0.5-0.7-0.7-1.5-0.7c-0.6,0-1.2,0.2-1.8,0.7c-0.6,0.4-1,1-1.2,1.6c-0.3,0.8-0.5,1.4-0.8,2c-0.3,0.5-0.8,0.8-1.4,0.8
			c-0.2,0-0.3-0.1-0.4-0.2s-0.2-0.3-0.2-0.5c0-0.4,0.2-1,0.5-1.6c0.3-0.6,0.8-1.2,1.4-1.7c0.6-0.5,1.3-1,2.1-1.4
			c0.8-0.4,1.7-0.6,2.7-0.6c0.8,0,1.4,0.1,1.8,0.3c0.4,0.2,0.8,0.5,1,0.9c0.2,0.4,0.4,0.8,0.4,1.3c0,0.5,0.1,1.1,0.1,1.8V55.6z
			 M960.9,50.4c-0.1,0-0.2,0.1-0.4,0.1l-1.1,0.6c-2.5,1.5-3.8,3-3.8,4.7c0,0.7,0.2,1.2,0.5,1.7c0.3,0.4,0.8,0.6,1.4,0.6
			c0.4,0,0.8-0.1,1.2-0.3c0.4-0.2,0.8-0.4,1.1-0.8c0.4-0.3,0.6-0.7,0.9-1.2c0.2-0.5,0.3-1,0.3-1.7v-3.4
			C961.2,50.6,961.1,50.4,960.9,50.4z"/>
		<path class="st0" d="M970.6,44.7c0,0.3,0,0.4,0.1,0.4c0.1,0,0.2-0.2,0.4-0.5c0.2-0.4,0.5-0.8,1-1.2c0.5-0.4,1-0.8,1.4-1
			c0.5-0.2,1-0.3,1.5-0.3c1,0,1.8,0.3,2.5,0.8c0.6,0.6,1.2,1.4,1.5,2.6h0.1c0.7-1.2,1.4-2,2.1-2.6c0.7-0.6,1.5-0.8,2.4-0.8
			c1.3,0,2.3,0.5,3.1,1.5c0.8,1,1.2,2.4,1.2,4.1c0,0.1,0,0.4,0,0.8c0,0.4,0,0.9,0,1.5v6.8c0,0.5,0.1,0.9,0.3,1.1s0.4,0.3,0.6,0.4
			c0.2,0.1,0.4,0.1,0.6,0.1c0.2,0,0.3,0.2,0.3,0.4c0,0.2,0,0.3-0.1,0.3c-0.1,0-0.2,0.1-0.4,0.1c-0.1,0-0.4,0-0.8-0.1
			c-0.4,0-0.9-0.1-1.5-0.1c-0.5,0-1,0-1.4,0.1c-0.4,0.1-0.7,0.1-0.9,0.1c-0.2,0-0.3,0-0.4-0.1c-0.1,0-0.1-0.1-0.1-0.3
			c0-0.2,0.1-0.3,0.3-0.4c0.2,0,0.4-0.1,0.6-0.2c0.2-0.1,0.4-0.2,0.6-0.4c0.2-0.2,0.3-0.5,0.3-1v-7.5c0-1.9-0.2-3.4-0.7-4.3
			c-0.5-1-1.3-1.4-2.5-1.4c-1,0-1.8,0.4-2.4,1.3c-0.7,0.9-1,2.2-1,4l-0.1,8c0,0.5,0.1,0.8,0.3,1c0.2,0.2,0.4,0.3,0.6,0.4
			c0.2,0.1,0.4,0.1,0.6,0.2c0.2,0,0.3,0.2,0.3,0.4c0,0.2,0,0.3-0.1,0.3c-0.1,0-0.2,0.1-0.4,0.1c-0.2,0-0.4,0-0.8-0.1
			c-0.4,0-0.8-0.1-1.4-0.1c-0.7,0-1.2,0-1.6,0.1c-0.4,0.1-0.7,0.1-0.8,0.1c-0.2,0-0.3,0-0.4-0.1c-0.1,0-0.1-0.1-0.1-0.3
			c0-0.2,0.1-0.3,0.3-0.4c0.2,0,0.4-0.1,0.6-0.2c0.2-0.1,0.4-0.2,0.6-0.4c0.2-0.2,0.3-0.5,0.3-1v-7.5c0-1.9-0.2-3.4-0.7-4.3
			c-0.5-1-1.3-1.4-2.4-1.4c-1,0-1.8,0.5-2.5,1.4c-0.7,0.9-1,2.2-1,4v8c0,0.5,0.1,0.9,0.3,1.1c0.2,0.2,0.4,0.3,0.7,0.4
			c0.2,0.1,0.5,0.1,0.7,0.1c0.2,0,0.3,0.2,0.3,0.4c0,0.2,0,0.3-0.1,0.3c-0.1,0-0.2,0.1-0.4,0.1c-0.1,0-0.3,0-0.7-0.1
			c-0.4,0-0.9-0.1-1.6-0.1c-0.5,0-1,0-1.4,0.1c-0.4,0.1-0.7,0.1-1,0.1c-0.2,0-0.3,0-0.4-0.1c-0.1,0-0.1-0.1-0.1-0.3
			c0-0.2,0.1-0.3,0.3-0.4c0.2,0,0.4-0.1,0.7-0.2c0.2-0.1,0.5-0.2,0.7-0.4c0.2-0.2,0.3-0.5,0.3-1V46.2c0-0.4-0.1-0.7-0.2-0.9
			c-0.2-0.1-0.3-0.2-0.5-0.3c-0.2,0-0.4,0-0.5,0s-0.2-0.1-0.2-0.3c0-0.2,0.1-0.4,0.4-0.5c0.3-0.1,0.5-0.2,0.8-0.4
			c0.6-0.4,1.1-0.9,1.4-1.2c0.3-0.4,0.5-0.6,0.6-0.6c0.1,0,0.2,0.1,0.2,0.2c0,0.2,0,0.4,0,0.7V44.7z"/>
		<path class="st0" d="M994.7,48.6c-0.3,0-0.5,0.1-0.6,0.3c-0.1,0.2-0.1,0.6-0.1,1.2c0,1.2,0.1,2.3,0.4,3.3c0.3,1,0.7,1.8,1.2,2.5
			c0.5,0.7,1.1,1.2,1.8,1.5c0.7,0.4,1.5,0.5,2.3,0.5c0.8,0,1.4-0.1,1.9-0.4c0.5-0.2,1-0.5,1.3-0.8c0.3-0.3,0.6-0.6,0.8-0.8
			c0.2-0.2,0.3-0.4,0.4-0.4c0.2,0,0.3,0.1,0.3,0.3c0,0.3-0.1,0.6-0.4,1.1s-0.7,0.9-1.2,1.3c-0.5,0.4-1.1,0.8-1.8,1.1
			c-0.7,0.3-1.5,0.4-2.4,0.4c-1,0-1.9-0.2-2.8-0.6c-0.8-0.4-1.6-1-2.2-1.8c-0.6-0.8-1.1-1.7-1.4-2.8c-0.3-1.1-0.5-2.3-0.5-3.7
			c0-1.4,0.2-2.6,0.6-3.7c0.4-1.1,0.9-2,1.6-2.8c0.7-0.8,1.4-1.4,2.3-1.8c0.9-0.4,1.8-0.6,2.8-0.6c0.9,0,1.6,0.2,2.3,0.5
			c0.7,0.3,1.3,0.8,1.8,1.3c0.5,0.5,0.8,1.2,1.1,1.9c0.3,0.7,0.4,1.4,0.4,2.2c0,0.3-0.1,0.5-0.2,0.6c-0.2,0.1-0.4,0.2-0.9,0.2H994.7
			z M1001.1,47.5c0.7-0.2,1.1-0.6,1.1-1.4c0-0.4-0.1-0.8-0.3-1.2c-0.2-0.4-0.4-0.8-0.7-1.1s-0.7-0.6-1.1-0.8s-0.9-0.3-1.3-0.3
			c-0.6,0-1.2,0.1-1.7,0.5c-0.5,0.3-1,0.7-1.4,1.1c-0.4,0.5-0.7,1-1,1.5c-0.2,0.6-0.4,1.1-0.4,1.6c0,0.1,0,0.2,0.1,0.2
			c0.1,0.1,0.2,0.1,0.3,0.1h3C999.2,47.8,1000.4,47.7,1001.1,47.5z"/>
		<path class="st0" d="M1010.1,45.1c0,0.2,0,0.3,0.1,0.3c0.1,0,0.2-0.1,0.3-0.2l0.7-1c1-1.4,2.1-2.1,3.3-2.1c0.6,0,1.1,0.2,1.4,0.5
			c0.3,0.3,0.5,0.8,0.5,1.2c0,0.5-0.1,0.9-0.4,1.2c-0.3,0.3-0.5,0.5-0.9,0.5c-0.2,0-0.5-0.1-0.6-0.2c-0.2-0.1-0.4-0.3-0.6-0.5
			c-0.2-0.2-0.4-0.4-0.6-0.5c-0.2-0.1-0.4-0.2-0.7-0.2c-0.3,0-0.5,0.1-0.8,0.3c-0.3,0.2-0.5,0.6-0.8,1.1c-0.2,0.5-0.4,1.1-0.6,1.8
			s-0.2,1.6-0.2,2.7V56c0,0.6,0,1.1,0.1,1.4c0.1,0.3,0.3,0.5,0.7,0.6c0.3,0.1,0.6,0.2,0.8,0.2c0.2,0,0.5,0,0.6,0.1
			c0.2,0,0.3,0,0.4,0.1c0.1,0,0.1,0.1,0.1,0.3c0,0.3-0.2,0.4-0.6,0.4c-0.3,0-0.8,0-1.3-0.1c-0.6-0.1-1.2-0.1-2-0.1
			c-0.5,0-0.9,0-1.3,0.1c-0.4,0-0.8,0.1-1,0.1c-0.2,0-0.3,0-0.4-0.1c-0.1,0-0.1-0.1-0.1-0.3c0-0.2,0.1-0.4,0.3-0.4
			c0.2,0,0.5-0.1,0.9-0.2c0.3-0.1,0.5-0.3,0.6-0.6c0.1-0.3,0.1-0.8,0.1-1.4v-9.8c0-0.4-0.1-0.7-0.2-0.9s-0.3-0.2-0.5-0.3
			s-0.4,0-0.5,0s-0.2-0.1-0.2-0.3c0-0.2,0.1-0.4,0.4-0.5c0.3-0.1,0.5-0.3,0.9-0.5c0.6-0.4,1-0.8,1.3-1.2c0.3-0.4,0.5-0.6,0.7-0.6
			c0.1,0,0.2,0.1,0.2,0.2c0,0.2,0,0.4,0,0.7V45.1z"/>
	</g>
	<g>
		<path class="st0" d="M188.2,45.1c0,0.2,0,0.4,0.1,0.5c0.1,0.1,0.2,0.1,0.4,0.1h9c0.2,0,0.4,0,0.4-0.1c0-0.1,0.1-0.3,0.1-0.5v-6.6
			c0-0.6,0-1-0.1-1.2c-0.1-0.2-0.3-0.4-0.7-0.5c-0.2-0.1-0.5-0.1-0.7-0.1c-0.2,0-0.4,0-0.5,0c-0.2,0-0.3-0.1-0.4-0.1
			c-0.1-0.1-0.1-0.2-0.1-0.4c0-0.3,0.2-0.5,0.6-0.5c0.3,0,0.7,0,1.2,0.1c0.5,0.1,1.2,0.1,2,0.1c0.9,0,1.6,0,2.2-0.1
			c0.6-0.1,1-0.1,1.2-0.1c0.3,0,0.5,0.2,0.5,0.5c0,0.2,0,0.3-0.1,0.4c-0.1,0.1-0.2,0.1-0.3,0.1c-0.1,0-0.3,0-0.5,0.1
			c-0.2,0-0.4,0-0.6,0.1c-0.5,0.1-0.7,0.3-0.8,0.5c-0.1,0.2-0.1,0.7-0.1,1.2v17.1c0,0.4,0,0.7,0,1c0,0.2,0,0.5,0.1,0.6
			c0.1,0.2,0.2,0.3,0.3,0.4c0.1,0.1,0.3,0.2,0.6,0.3c0.2,0.1,0.4,0.1,0.6,0.1c0.2,0,0.4,0,0.5,0c0.1,0,0.3,0.1,0.4,0.2
			c0.1,0.1,0.1,0.2,0.1,0.4c0,0.3-0.3,0.5-0.8,0.5c-0.2,0-0.6,0-1.1-0.1c-0.5-0.1-1.2-0.1-2-0.1s-1.4,0-2,0.1
			c-0.5,0.1-0.9,0.1-1.1,0.1c-0.5,0-0.8-0.2-0.8-0.6c0-0.2,0-0.3,0.1-0.4c0.1-0.1,0.2-0.1,0.3-0.1c0.1,0,0.3,0,0.5,0
			c0.2,0,0.3,0,0.5-0.1c0.3-0.1,0.5-0.2,0.7-0.3s0.3-0.2,0.4-0.4c0.1-0.2,0.1-0.4,0.1-0.6s0-0.6,0-1v-8.1c0-0.2,0-0.4-0.1-0.5
			c0-0.1-0.2-0.1-0.4-0.1h-9c-0.2,0-0.4,0-0.4,0.1c-0.1,0.1-0.1,0.3-0.1,0.5v8.1c0,0.4,0,0.7,0,1c0,0.2,0,0.5,0.1,0.6
			c0.1,0.2,0.2,0.3,0.3,0.4c0.1,0.1,0.3,0.2,0.6,0.3c0.2,0.1,0.4,0.1,0.6,0.1c0.2,0,0.4,0,0.5,0c0.1,0,0.3,0.1,0.4,0.2
			c0.1,0.1,0.1,0.2,0.1,0.4c0,0.3-0.3,0.5-0.8,0.5c-0.2,0-0.6,0-1.1-0.1c-0.5-0.1-1.2-0.1-2-0.1s-1.4,0-2,0.1
			c-0.5,0.1-0.9,0.1-1.1,0.1c-0.5,0-0.8-0.2-0.8-0.6c0-0.2,0-0.3,0.1-0.4s0.2-0.1,0.3-0.1c0.1,0,0.3,0,0.5,0s0.3,0,0.5-0.1
			c0.3-0.1,0.5-0.2,0.7-0.3c0.2-0.1,0.3-0.2,0.4-0.4c0.1-0.2,0.1-0.4,0.1-0.6c0-0.3,0-0.6,0-1V38.6c0-0.6,0-1-0.1-1.2
			c-0.1-0.2-0.3-0.4-0.7-0.5c-0.2-0.1-0.5-0.1-0.7-0.1c-0.2,0-0.4,0-0.5,0c-0.2,0-0.3-0.1-0.4-0.1c-0.1-0.1-0.1-0.2-0.1-0.4
			c0-0.3,0.2-0.5,0.6-0.5c0.3,0,0.7,0,1.2,0.1c0.5,0.1,1.2,0.1,2,0.1c0.9,0,1.6,0,2.1-0.1c0.5-0.1,0.9-0.1,1.2-0.1
			c0.4,0,0.6,0.2,0.6,0.5c0,0.2,0,0.3-0.1,0.4c-0.1,0.1-0.2,0.1-0.3,0.1c-0.1,0-0.3,0-0.5,0.1c-0.2,0-0.4,0-0.6,0.1
			c-0.5,0.1-0.7,0.3-0.8,0.5c-0.1,0.2-0.1,0.7-0.1,1.2V45.1z"/>
		<path class="st0" d="M214.8,55.6c0,1.5,0.3,2.3,1,2.3c0.3,0,0.5-0.1,0.8-0.4c0.2-0.3,0.4-0.4,0.6-0.4c0.2,0,0.3,0.1,0.3,0.3
			c0,0.2-0.1,0.4-0.3,0.7s-0.5,0.5-0.8,0.8c-0.3,0.2-0.6,0.5-0.9,0.6c-0.3,0.2-0.6,0.2-0.9,0.2c-0.5,0-0.9-0.2-1.1-0.6
			c-0.3-0.4-0.5-1-0.7-1.9h-0.1c-0.9,0.8-1.8,1.4-2.5,1.9s-1.5,0.7-2.3,0.7c-0.9,0-1.6-0.3-2.1-0.8c-0.5-0.5-0.7-1.2-0.7-2.1
			c0-0.7,0.2-1.3,0.5-2c0.3-0.6,0.8-1.2,1.5-1.8c0.7-0.6,1.5-1.2,2.4-1.8c1-0.6,2.1-1.3,3.3-2V46c0-1.1-0.1-2-0.3-2.5
			c-0.2-0.5-0.7-0.7-1.5-0.7c-0.6,0-1.2,0.2-1.8,0.7c-0.6,0.4-1,1-1.2,1.6c-0.3,0.8-0.5,1.4-0.8,2c-0.3,0.5-0.8,0.8-1.4,0.8
			c-0.2,0-0.3-0.1-0.4-0.2s-0.2-0.3-0.2-0.5c0-0.4,0.2-1,0.5-1.6c0.3-0.6,0.8-1.2,1.4-1.7c0.6-0.5,1.3-1,2.1-1.4
			c0.8-0.4,1.7-0.6,2.7-0.6c0.8,0,1.4,0.1,1.8,0.3c0.4,0.2,0.8,0.5,1,0.9c0.2,0.4,0.4,0.8,0.4,1.3c0,0.5,0.1,1.1,0.1,1.8V55.6z
			 M212.5,50.4c-0.1,0-0.2,0.1-0.4,0.1l-1.1,0.6c-2.5,1.5-3.8,3-3.8,4.7c0,0.7,0.2,1.2,0.5,1.7c0.3,0.4,0.8,0.6,1.4,0.6
			c0.4,0,0.8-0.1,1.2-0.3c0.4-0.2,0.8-0.4,1.1-0.8c0.4-0.3,0.6-0.7,0.9-1.2c0.2-0.5,0.3-1,0.3-1.7v-3.4
			C212.7,50.6,212.6,50.4,212.5,50.4z"/>
		<path class="st0" d="M221.5,44.6c0,0.3,0,0.4,0.1,0.4s0.3-0.2,0.5-0.5c0.2-0.3,0.5-0.7,1-1.1c0.5-0.4,1-0.8,1.5-1
			c0.5-0.2,1.1-0.3,1.8-0.3c0.9,0,1.7,0.2,2.5,0.6s1.4,1,1.9,1.8s1,1.7,1.3,2.7c0.3,1.1,0.5,2.3,0.5,3.6c0,1.4-0.2,2.7-0.5,3.9
			c-0.4,1.1-0.8,2.1-1.5,2.9c-0.6,0.8-1.3,1.4-2.2,1.8c-0.8,0.4-1.8,0.6-2.7,0.6c-0.7,0-1.4-0.1-1.9-0.2c-0.6-0.1-1.1-0.3-1.5-0.4
			c-0.4-0.2-0.8-0.3-1-0.4c-0.3-0.1-0.4-0.2-0.5-0.2c-0.1,0-0.2,0.1-0.3,0.2c-0.1,0.1-0.2,0.3-0.3,0.5c-0.1,0.2-0.2,0.3-0.3,0.5
			c-0.1,0.1-0.2,0.2-0.4,0.2c-0.2,0-0.3-0.1-0.3-0.4c0-0.1,0.1-0.5,0.2-1c0.1-0.6,0.2-1.3,0.2-2.1V37.1c0-1.1-0.4-1.7-1.1-1.7
			c0,0-0.1,0-0.1,0c-0.1,0-0.2,0-0.3,0c-0.2,0-0.3-0.1-0.3-0.3c0-0.3,0.1-0.4,0.4-0.5c0.3,0,0.6-0.1,1-0.3c0.6-0.2,1.1-0.4,1.4-0.7
			c0.3-0.2,0.6-0.4,0.7-0.4c0.1,0,0.2,0.3,0.2,0.8V44.6z M221.8,57.3c0.2,0.4,0.5,0.7,0.8,1c0.3,0.3,0.7,0.5,1.2,0.7
			c0.4,0.2,0.9,0.2,1.4,0.2c1.5,0,2.7-0.7,3.6-2.1c0.9-1.4,1.4-3.4,1.4-5.9c0-2.5-0.4-4.4-1.3-5.8c-0.9-1.3-2-2-3.3-2
			c-0.5,0-1,0.1-1.5,0.3c-0.5,0.2-0.9,0.5-1.3,0.9c-0.4,0.4-0.7,0.8-0.9,1.4c-0.2,0.5-0.4,1.1-0.4,1.7V56
			C221.5,56.5,221.6,56.9,221.8,57.3z"/>
		<path class="st0" d="M238.3,56.8c0,0.5,0.1,0.9,0.3,1.1s0.4,0.3,0.7,0.4c0.3,0.1,0.5,0.1,0.7,0.1c0.2,0,0.3,0.2,0.3,0.4
			c0,0.2,0,0.3-0.1,0.3c-0.1,0-0.2,0-0.4,0c-0.1,0-0.4,0-0.9-0.1c-0.4,0-1-0.1-1.7-0.1c-0.6,0-1,0-1.5,0.1c-0.4,0.1-0.8,0.1-1.1,0.1
			c-0.2,0-0.3,0-0.5-0.1c-0.1,0-0.2-0.1-0.2-0.3c0-0.2,0.1-0.3,0.4-0.4c0.2,0,0.5-0.1,0.8-0.1c0.3-0.1,0.5-0.2,0.8-0.4
			c0.2-0.2,0.4-0.5,0.4-1V46.6c0-0.9-0.4-1.4-1.1-1.4c-0.2,0-0.4,0-0.5-0.1c-0.1,0-0.2-0.1-0.2-0.3c0-0.2,0.1-0.4,0.4-0.5
			c0.3-0.1,0.6-0.3,0.9-0.6c0.7-0.4,1.2-0.8,1.5-1.1c0.3-0.3,0.6-0.5,0.7-0.5c0.1,0,0.2,0.1,0.2,0.2c0,0.1,0,0.3,0,0.5V56.8z
			 M238.1,36.2c0.3,0.4,0.4,0.8,0.4,1.3c0,0.5-0.1,0.9-0.4,1.2c-0.3,0.4-0.6,0.5-0.9,0.5c-0.3,0-0.6-0.2-0.9-0.5
			c-0.3-0.3-0.4-0.8-0.4-1.3c0-0.5,0.1-0.9,0.4-1.3c0.3-0.4,0.6-0.6,0.9-0.6C237.6,35.6,237.9,35.8,238.1,36.2z"/>
		<path class="st0" d="M245.6,42.1c0,0.2,0,0.4,0.1,0.5c0.1,0.1,0.2,0.1,0.4,0.1h2.7c0.2,0,0.4,0,0.4,0.1c0,0.1,0.1,0.2,0.1,0.4v0.1
			c0,0.2,0,0.4-0.1,0.5c-0.1,0.1-0.2,0.1-0.4,0.1h-2.8c-0.2,0-0.4,0-0.4,0.1c-0.1,0.1-0.1,0.3-0.1,0.5v10.9c0,1.9,0.6,2.8,1.8,2.8
			c0.3,0,0.6-0.1,0.9-0.2c0.3-0.1,0.5-0.3,0.7-0.5c0.2-0.2,0.4-0.3,0.5-0.5s0.3-0.2,0.3-0.2c0.1,0,0.1,0.1,0.1,0.3
			c0,0.1-0.1,0.3-0.3,0.6s-0.4,0.6-0.8,0.9s-0.7,0.5-1.1,0.8c-0.4,0.2-0.9,0.3-1.3,0.3c-1,0-1.7-0.4-2.2-1.2
			c-0.5-0.8-0.8-1.9-0.8-3.4v-1.8l0.1-8.9c0-0.2,0-0.4-0.1-0.5c-0.1-0.1-0.2-0.1-0.4-0.1h-0.6c-0.4,0-0.6-0.1-0.6-0.3
			c0-0.2,0.2-0.4,0.6-0.7c0.4-0.3,0.8-0.8,1.4-1.4s0.9-1.2,1.1-1.7c0.2-0.5,0.4-0.7,0.5-0.7c0.1,0,0.1,0.1,0.1,0.4v0.6V42.1z"/>
		<path class="st0" d="M261.1,55.6c0,1.5,0.3,2.3,1,2.3c0.3,0,0.5-0.1,0.8-0.4c0.2-0.3,0.4-0.4,0.6-0.4c0.2,0,0.3,0.1,0.3,0.3
			c0,0.2-0.1,0.4-0.3,0.7s-0.5,0.5-0.8,0.8c-0.3,0.2-0.6,0.5-0.9,0.6c-0.3,0.2-0.6,0.2-0.9,0.2c-0.5,0-0.9-0.2-1.1-0.6
			c-0.3-0.4-0.5-1-0.7-1.9h-0.1c-0.9,0.8-1.8,1.4-2.5,1.9c-0.7,0.5-1.5,0.7-2.3,0.7c-0.9,0-1.6-0.3-2.1-0.8
			c-0.5-0.5-0.7-1.2-0.7-2.1c0-0.7,0.2-1.3,0.5-2c0.3-0.6,0.8-1.2,1.5-1.8c0.7-0.6,1.5-1.2,2.4-1.8c1-0.6,2.1-1.3,3.3-2V46
			c0-1.1-0.1-2-0.3-2.5c-0.2-0.5-0.7-0.7-1.5-0.7c-0.6,0-1.2,0.2-1.8,0.7c-0.6,0.4-1,1-1.2,1.6c-0.3,0.8-0.5,1.4-0.8,2
			c-0.3,0.5-0.8,0.8-1.4,0.8c-0.2,0-0.3-0.1-0.4-0.2s-0.2-0.3-0.2-0.5c0-0.4,0.2-1,0.5-1.6c0.3-0.6,0.8-1.2,1.4-1.7
			c0.6-0.5,1.3-1,2.1-1.4c0.8-0.4,1.7-0.6,2.7-0.6c0.8,0,1.4,0.1,1.8,0.3c0.4,0.2,0.8,0.5,1,0.9c0.2,0.4,0.4,0.8,0.4,1.3
			c0,0.5,0.1,1.1,0.1,1.8V55.6z M258.7,50.4c-0.1,0-0.2,0.1-0.4,0.1l-1.1,0.6c-2.5,1.5-3.8,3-3.8,4.7c0,0.7,0.2,1.2,0.5,1.7
			c0.3,0.4,0.8,0.6,1.4,0.6c0.4,0,0.8-0.1,1.2-0.3c0.4-0.2,0.8-0.4,1.1-0.8c0.4-0.3,0.6-0.7,0.9-1.2c0.2-0.5,0.3-1,0.3-1.7v-3.4
			C258.9,50.6,258.9,50.4,258.7,50.4z"/>
		<path class="st0" d="M268.4,42.1c0,0.2,0,0.4,0.1,0.5c0.1,0.1,0.2,0.1,0.4,0.1h2.7c0.2,0,0.4,0,0.4,0.1c0,0.1,0.1,0.2,0.1,0.4v0.1
			c0,0.2,0,0.4-0.1,0.5c-0.1,0.1-0.2,0.1-0.4,0.1h-2.8c-0.2,0-0.4,0-0.4,0.1c-0.1,0.1-0.1,0.3-0.1,0.5v10.9c0,1.9,0.6,2.8,1.8,2.8
			c0.3,0,0.6-0.1,0.9-0.2c0.3-0.1,0.5-0.3,0.7-0.5c0.2-0.2,0.4-0.3,0.5-0.5s0.3-0.2,0.3-0.2c0.1,0,0.1,0.1,0.1,0.3
			c0,0.1-0.1,0.3-0.3,0.6s-0.4,0.6-0.8,0.9s-0.7,0.5-1.1,0.8c-0.4,0.2-0.9,0.3-1.3,0.3c-1,0-1.7-0.4-2.2-1.2
			c-0.5-0.8-0.8-1.9-0.8-3.4v-1.8l0.1-8.9c0-0.2,0-0.4-0.1-0.5c-0.1-0.1-0.2-0.1-0.4-0.1h-0.6c-0.4,0-0.6-0.1-0.6-0.3
			c0-0.2,0.2-0.4,0.6-0.7c0.4-0.3,0.8-0.8,1.4-1.4s0.9-1.2,1.1-1.7c0.2-0.5,0.4-0.7,0.5-0.7c0.1,0,0.1,0.1,0.1,0.4v0.6V42.1z"/>
	</g>
</g>
</svg>
