<?xml version="1.0" encoding="utf-8"?>
<!-- Generator: Adobe Illustrator 25.2.1, SVG Export Plug-In . SVG Version: 6.00 Build 0)  -->
<svg version="1.1" id="Layer_1" xmlns="http://www.w3.org/2000/svg" xmlns:xlink="http://www.w3.org/1999/xlink" x="0px" y="0px"
	 viewBox="0 0 1200 100" style="enable-background:new 0 0 1200 100;" xml:space="preserve">
<g>
	<path d="M244.4,44.3c0,0.4,0.1,0.7,0.2,0.9c0.1,0.2,0.4,0.2,0.8,0.2h16.1c0.4,0,0.6-0.1,0.7-0.2c0.1-0.2,0.1-0.4,0.1-0.9V32.8
		c0-1-0.1-1.8-0.2-2.1c-0.1-0.4-0.5-0.7-1.2-0.9c-0.4-0.1-0.9-0.2-1.2-0.2c-0.4,0-0.7,0-1-0.1c-0.3,0-0.5-0.1-0.7-0.2
		c-0.2-0.1-0.2-0.3-0.2-0.7c0-0.6,0.3-0.9,1-0.9c0.5,0,1.2,0.1,2.1,0.3c0.9,0.2,2.1,0.3,3.5,0.3c1.6,0,2.9-0.1,3.8-0.3
		c1-0.2,1.7-0.3,2.1-0.3c0.6,0,0.9,0.3,0.9,0.9c0,0.3-0.1,0.5-0.2,0.6c-0.1,0.1-0.3,0.2-0.6,0.2c-0.2,0-0.5,0.1-0.9,0.1
		c-0.4,0-0.7,0.1-1.1,0.2c-0.8,0.2-1.3,0.5-1.5,0.9c-0.2,0.4-0.2,1.1-0.2,2.2v30c0,0.7,0,1.3,0,1.7c0,0.4,0.1,0.8,0.2,1.1
		s0.3,0.5,0.5,0.7c0.2,0.2,0.5,0.3,1,0.5c0.4,0.1,0.8,0.2,1.1,0.2c0.3,0,0.7,0,0.9,0.1c0.3,0,0.5,0.1,0.7,0.3s0.3,0.4,0.3,0.8
		c0,0.6-0.5,0.9-1.4,0.9c-0.4,0-1.1-0.1-2-0.2c-0.9-0.1-2.1-0.2-3.5-0.2c-1.4,0-2.6,0.1-3.5,0.2c-0.9,0.1-1.6,0.2-2,0.2
		c-1,0-1.4-0.3-1.4-1c0-0.3,0.1-0.5,0.2-0.7s0.3-0.2,0.6-0.3c0.2,0,0.5-0.1,0.8-0.1c0.3,0,0.6,0,0.9-0.1c0.5-0.1,0.9-0.3,1.2-0.5
		c0.3-0.2,0.5-0.4,0.6-0.7c0.1-0.3,0.2-0.7,0.2-1.1c0-0.5,0-1,0-1.7V48.6c0-0.4,0-0.7-0.1-0.9c-0.1-0.2-0.3-0.2-0.7-0.2h-16.1
		c-0.4,0-0.6,0.1-0.8,0.2c-0.1,0.2-0.2,0.4-0.2,0.9v14.2c0,0.7,0,1.3,0,1.7c0,0.4,0.1,0.8,0.2,1.1c0.1,0.3,0.3,0.5,0.5,0.7
		c0.2,0.2,0.5,0.3,1,0.5c0.4,0.1,0.8,0.2,1.1,0.2s0.7,0,0.9,0.1c0.3,0,0.5,0.1,0.7,0.3c0.2,0.2,0.3,0.4,0.3,0.8
		c0,0.6-0.5,0.9-1.4,0.9c-0.4,0-1.1-0.1-2-0.2c-0.9-0.1-2.1-0.2-3.5-0.2c-1.4,0-2.6,0.1-3.5,0.2c-0.9,0.1-1.6,0.2-2,0.2
		c-0.9,0-1.4-0.3-1.4-1c0-0.3,0.1-0.5,0.2-0.7c0.2-0.1,0.3-0.2,0.6-0.3c0.2,0,0.5-0.1,0.8-0.1c0.3,0,0.6,0,0.9-0.1
		c0.5-0.1,0.9-0.3,1.2-0.5c0.3-0.2,0.5-0.4,0.6-0.7c0.1-0.3,0.2-0.7,0.2-1.1c0-0.5,0-1,0-1.7v-30c0-1-0.1-1.8-0.2-2.1
		c-0.2-0.4-0.6-0.7-1.2-0.9c-0.4-0.1-0.9-0.2-1.2-0.2c-0.4,0-0.7,0-1-0.1c-0.3,0-0.5-0.1-0.7-0.2c-0.2-0.1-0.2-0.3-0.2-0.7
		c0-0.6,0.3-0.9,1-0.9c0.5,0,1.2,0.1,2.1,0.3c0.9,0.2,2.1,0.3,3.5,0.3c1.6,0,2.8-0.1,3.8-0.3c1-0.2,1.7-0.3,2.1-0.3
		c0.7,0,1,0.3,1,0.9c0,0.3-0.1,0.5-0.2,0.6c-0.1,0.1-0.3,0.2-0.6,0.2c-0.3,0-0.6,0.1-0.9,0.1c-0.3,0-0.7,0.1-1.1,0.2
		c-0.8,0.2-1.3,0.5-1.5,0.9c-0.2,0.4-0.2,1.1-0.2,2.2V44.3z"/>
	<path d="M291.8,62.8c0,2.7,0.6,4.1,1.8,4.1c0.5,0,0.9-0.2,1.3-0.7c0.4-0.5,0.8-0.7,1-0.7c0.3,0,0.5,0.2,0.5,0.5
		c0,0.4-0.2,0.8-0.6,1.2c-0.4,0.5-0.8,0.9-1.3,1.3c-0.5,0.4-1.1,0.8-1.7,1.1c-0.6,0.3-1.1,0.4-1.5,0.4c-0.9,0-1.5-0.3-2-1
		c-0.5-0.7-0.9-1.8-1.3-3.3h-0.3c-1.7,1.4-3.1,2.5-4.4,3.3c-1.3,0.8-2.6,1.2-4,1.2c-1.6,0-2.8-0.5-3.7-1.4c-0.9-0.9-1.3-2.2-1.3-3.8
		c0-1.2,0.3-2.4,0.9-3.4c0.6-1.1,1.4-2.1,2.6-3.1c1.2-1,2.6-2.1,4.3-3.2s3.7-2.3,5.9-3.5V46c0-2-0.2-3.5-0.6-4.3
		c-0.4-0.9-1.3-1.3-2.7-1.3c-1.1,0-2.2,0.4-3.2,1.2c-1,0.8-1.7,1.7-2.1,2.8c-0.5,1.4-1,2.5-1.4,3.4c-0.5,0.9-1.3,1.4-2.6,1.4
		c-0.3,0-0.6-0.1-0.8-0.3c-0.2-0.2-0.3-0.5-0.3-0.8c0-0.8,0.3-1.7,0.9-2.8c0.6-1,1.4-2.1,2.4-3c1-1,2.3-1.8,3.7-2.4s3-1,4.7-1
		c1.4,0,2.4,0.2,3.2,0.5c0.8,0.4,1.4,0.9,1.8,1.5c0.4,0.7,0.6,1.4,0.7,2.4c0.1,0.9,0.1,1.9,0.1,3.1V62.8z M287.6,53.7
		c-0.1,0-0.4,0.1-0.7,0.3l-2,1.1c-4.5,2.6-6.7,5.3-6.7,8.2c0,1.2,0.3,2.2,0.9,2.9s1.5,1.1,2.6,1.1c0.7,0,1.3-0.2,2.1-0.5
		c0.7-0.3,1.4-0.8,2-1.3c0.6-0.6,1.1-1.3,1.5-2.2c0.4-0.9,0.6-1.8,0.6-2.9v-6C288,53.9,287.8,53.7,287.6,53.7z"/>
	<path d="M303.6,43.3c0,0.5,0.1,0.7,0.3,0.7s0.4-0.3,0.8-0.9c0.4-0.6,1-1.3,1.8-2c0.9-0.8,1.8-1.4,2.7-1.7c0.9-0.4,1.9-0.6,3.2-0.6
		c1.6,0,3,0.4,4.4,1.1c1.3,0.7,2.5,1.7,3.5,3.1c1,1.3,1.7,2.9,2.3,4.8c0.5,1.9,0.8,4,0.8,6.3c0,2.5-0.3,4.8-1,6.8
		c-0.6,2-1.5,3.7-2.6,5c-1.1,1.4-2.4,2.4-3.9,3.1c-1.5,0.7-3.1,1.1-4.8,1.1c-1.3,0-2.4-0.1-3.4-0.3s-1.9-0.5-2.7-0.8
		c-0.7-0.3-1.3-0.5-1.8-0.8s-0.8-0.3-1-0.3c-0.2,0-0.4,0.1-0.6,0.4c-0.2,0.3-0.4,0.5-0.5,0.9c-0.2,0.3-0.4,0.6-0.5,0.9
		c-0.2,0.3-0.4,0.4-0.7,0.4c-0.4,0-0.6-0.3-0.6-0.8c0-0.2,0.1-0.8,0.4-1.8s0.4-2.2,0.4-3.8v-34c0-2-0.7-3-2-3c0,0-0.1,0-0.2,0
		c-0.1,0-0.3,0-0.5,0c-0.3,0-0.5-0.2-0.5-0.6c0-0.5,0.2-0.8,0.7-0.9c0.5-0.1,1.1-0.2,1.8-0.5c1.1-0.3,1.9-0.7,2.6-1.2
		c0.6-0.4,1-0.7,1.3-0.7c0.3,0,0.4,0.5,0.4,1.4V43.3z M304.1,65.7c0.4,0.7,0.8,1.3,1.4,1.7c0.6,0.5,1.3,0.9,2.1,1.2
		c0.8,0.3,1.6,0.4,2.6,0.4c2.6,0,4.8-1.2,6.4-3.7c1.6-2.4,2.5-5.9,2.5-10.4c0-4.4-0.8-7.8-2.3-10.2c-1.5-2.3-3.5-3.5-5.9-3.5
		c-0.9,0-1.8,0.2-2.6,0.6c-0.9,0.4-1.7,0.9-2.4,1.6c-0.7,0.7-1.3,1.5-1.7,2.4c-0.4,0.9-0.6,1.9-0.6,3v14.7
		C303.6,64.3,303.7,65,304.1,65.7z"/>
	<path d="M333.5,64.9c0,0.9,0.2,1.5,0.6,1.9c0.4,0.3,0.8,0.5,1.2,0.7s0.9,0.2,1.2,0.3c0.4,0.1,0.6,0.3,0.6,0.6
		c0,0.4-0.1,0.5-0.2,0.6c-0.2,0-0.4,0.1-0.8,0.1c-0.3,0-0.8,0-1.5-0.1c-0.8-0.1-1.8-0.1-3-0.1c-1,0-1.9,0-2.6,0.1
		c-0.8,0.1-1.4,0.1-1.9,0.1c-0.4,0-0.6,0-0.8-0.1c-0.2-0.1-0.3-0.3-0.3-0.6c0-0.3,0.2-0.6,0.6-0.6c0.4-0.1,0.9-0.2,1.3-0.3
		c0.5-0.1,0.9-0.3,1.3-0.7c0.4-0.3,0.6-1,0.6-1.8v-18c0-1.6-0.7-2.4-2-2.4c-0.4,0-0.6,0-0.9-0.1c-0.2-0.1-0.3-0.3-0.3-0.6
		c0-0.4,0.3-0.7,0.8-0.9c0.5-0.2,1-0.5,1.6-1c1.2-0.7,2.1-1.3,2.7-1.9c0.6-0.6,1-0.9,1.3-0.9c0.2,0,0.3,0.1,0.4,0.3
		c0,0.2,0.1,0.5,0.1,0.9V64.9z M333.2,28.7c0.5,0.7,0.7,1.4,0.7,2.3c0,0.8-0.2,1.6-0.7,2.2c-0.5,0.6-1,1-1.7,1
		c-0.6,0-1.1-0.3-1.6-0.9c-0.5-0.6-0.7-1.4-0.7-2.2c0-0.9,0.2-1.6,0.7-2.3s1-1,1.6-1C332.2,27.7,332.7,28,333.2,28.7z"/>
	<path d="M346.5,39c0,0.4,0.1,0.7,0.2,0.9c0.1,0.2,0.4,0.2,0.8,0.2h4.9c0.4,0,0.6,0.1,0.7,0.2c0.1,0.1,0.1,0.3,0.1,0.7v0.3
		c0,0.4-0.1,0.7-0.2,0.9c-0.1,0.2-0.3,0.3-0.7,0.3h-4.9c-0.4,0-0.6,0.1-0.8,0.2c-0.1,0.2-0.2,0.4-0.2,0.9v19.1c0,3.3,1,5,3.1,5
		c0.6,0,1.1-0.1,1.6-0.4c0.5-0.3,0.9-0.5,1.3-0.8c0.4-0.3,0.7-0.6,1-0.8c0.3-0.3,0.5-0.4,0.6-0.4c0.2,0,0.3,0.2,0.3,0.5
		c0,0.2-0.2,0.6-0.5,1.1c-0.3,0.5-0.8,1-1.4,1.5c-0.6,0.5-1.3,1-2,1.3c-0.8,0.4-1.6,0.6-2.4,0.6c-1.7,0-3-0.7-4-2s-1.4-3.3-1.4-6
		v-3.1l0.2-15.7c0-0.4-0.1-0.7-0.2-0.9c-0.1-0.2-0.4-0.2-0.8-0.2h-1c-0.7,0-1-0.2-1-0.6c0-0.3,0.3-0.8,1-1.3
		c0.7-0.5,1.5-1.3,2.5-2.5c1-1.1,1.6-2.1,1.9-3c0.3-0.8,0.6-1.2,1-1.2c0.2,0,0.3,0.3,0.3,0.8v1V39z"/>
	<path d="M374,62.8c0,2.7,0.6,4.1,1.8,4.1c0.5,0,0.9-0.2,1.3-0.7c0.4-0.5,0.8-0.7,1-0.7c0.3,0,0.5,0.2,0.5,0.5
		c0,0.4-0.2,0.8-0.6,1.2c-0.4,0.5-0.8,0.9-1.3,1.3c-0.5,0.4-1.1,0.8-1.7,1.1c-0.6,0.3-1.1,0.4-1.5,0.4c-0.9,0-1.5-0.3-2-1
		c-0.5-0.7-0.9-1.8-1.3-3.3h-0.3c-1.7,1.4-3.1,2.5-4.4,3.3c-1.3,0.8-2.6,1.2-4,1.2c-1.6,0-2.8-0.5-3.7-1.4c-0.9-0.9-1.3-2.2-1.3-3.8
		c0-1.2,0.3-2.4,0.9-3.4c0.6-1.1,1.4-2.1,2.6-3.1c1.2-1,2.6-2.1,4.3-3.2c1.7-1.1,3.7-2.3,5.9-3.5V46c0-2-0.2-3.5-0.6-4.3
		c-0.4-0.9-1.3-1.3-2.7-1.3c-1.1,0-2.2,0.4-3.2,1.2c-1,0.8-1.7,1.7-2.1,2.8c-0.5,1.4-1,2.5-1.4,3.4c-0.5,0.9-1.3,1.4-2.6,1.4
		c-0.3,0-0.6-0.1-0.8-0.3c-0.2-0.2-0.3-0.5-0.3-0.8c0-0.8,0.3-1.7,0.9-2.8c0.6-1,1.4-2.1,2.4-3c1-1,2.3-1.8,3.7-2.4
		c1.4-0.7,3-1,4.7-1c1.4,0,2.4,0.2,3.2,0.5c0.8,0.4,1.4,0.9,1.8,1.5s0.6,1.4,0.7,2.4c0.1,0.9,0.1,1.9,0.1,3.1V62.8z M369.8,53.7
		c-0.1,0-0.4,0.1-0.7,0.3l-2,1.1c-4.5,2.6-6.7,5.3-6.7,8.2c0,1.2,0.3,2.2,0.9,2.9c0.6,0.7,1.5,1.1,2.6,1.1c0.7,0,1.3-0.2,2.1-0.5
		c0.7-0.3,1.4-0.8,2-1.3c0.6-0.6,1.1-1.3,1.5-2.2c0.4-0.9,0.6-1.8,0.6-2.9v-6C370.2,53.9,370.1,53.7,369.8,53.7z"/>
	<path d="M387,39c0,0.4,0.1,0.7,0.2,0.9c0.1,0.2,0.4,0.2,0.8,0.2h4.9c0.4,0,0.6,0.1,0.7,0.2c0.1,0.1,0.1,0.3,0.1,0.7v0.3
		c0,0.4-0.1,0.7-0.2,0.9c-0.1,0.2-0.3,0.3-0.7,0.3h-4.9c-0.4,0-0.6,0.1-0.8,0.2c-0.1,0.2-0.2,0.4-0.2,0.9v19.1c0,3.3,1,5,3.1,5
		c0.6,0,1.1-0.1,1.6-0.4c0.5-0.3,0.9-0.5,1.3-0.8c0.4-0.3,0.7-0.6,1-0.8c0.3-0.3,0.5-0.4,0.6-0.4c0.2,0,0.3,0.2,0.3,0.5
		c0,0.2-0.2,0.6-0.5,1.1c-0.3,0.5-0.8,1-1.4,1.5c-0.6,0.5-1.3,1-2,1.3c-0.8,0.4-1.6,0.6-2.4,0.6c-1.7,0-3-0.7-4-2
		c-0.9-1.4-1.4-3.3-1.4-6v-3.1l0.2-15.7c0-0.4-0.1-0.7-0.2-0.9c-0.1-0.2-0.4-0.2-0.8-0.2h-1c-0.7,0-1-0.2-1-0.6c0-0.3,0.3-0.8,1-1.3
		c0.7-0.5,1.5-1.3,2.5-2.5c1-1.1,1.6-2.1,1.9-3c0.3-0.8,0.6-1.2,1-1.2c0.2,0,0.3,0.3,0.3,0.8v1V39z"/>
	<path d="M415.8,43.3c0,0.5,0.1,0.7,0.3,0.7s0.4-0.3,0.8-0.9c0.4-0.6,1-1.3,1.8-2c0.9-0.8,1.8-1.4,2.7-1.7c0.9-0.4,1.9-0.6,3.2-0.6
		c1.6,0,3,0.4,4.4,1.1c1.3,0.7,2.5,1.7,3.5,3.1c1,1.3,1.7,2.9,2.3,4.8c0.5,1.9,0.8,4,0.8,6.3c0,2.5-0.3,4.8-1,6.8
		c-0.6,2-1.5,3.7-2.6,5c-1.1,1.4-2.4,2.4-3.9,3.1c-1.5,0.7-3.1,1.1-4.8,1.1c-1.3,0-2.4-0.1-3.4-0.3s-1.9-0.5-2.7-0.8
		c-0.7-0.3-1.3-0.5-1.8-0.8s-0.8-0.3-1-0.3c-0.2,0-0.4,0.1-0.6,0.4c-0.2,0.3-0.4,0.5-0.5,0.9c-0.2,0.3-0.4,0.6-0.5,0.9
		c-0.2,0.3-0.4,0.4-0.7,0.4c-0.4,0-0.6-0.3-0.6-0.8c0-0.2,0.1-0.8,0.4-1.8s0.4-2.2,0.4-3.8v-34c0-2-0.7-3-2-3c0,0-0.1,0-0.2,0
		c-0.1,0-0.3,0-0.5,0c-0.3,0-0.5-0.2-0.5-0.6c0-0.5,0.2-0.8,0.7-0.9c0.5-0.1,1.1-0.2,1.8-0.5c1.1-0.3,1.9-0.7,2.6-1.2
		c0.6-0.4,1-0.7,1.3-0.7c0.3,0,0.4,0.5,0.4,1.4V43.3z M416.3,65.7c0.4,0.7,0.8,1.3,1.4,1.7c0.6,0.5,1.3,0.9,2.1,1.2
		c0.8,0.3,1.6,0.4,2.6,0.4c2.6,0,4.8-1.2,6.4-3.7c1.6-2.4,2.5-5.9,2.5-10.4c0-4.4-0.8-7.8-2.3-10.2c-1.5-2.3-3.5-3.5-5.9-3.5
		c-0.9,0-1.8,0.2-2.6,0.6c-0.9,0.4-1.7,0.9-2.4,1.6c-0.7,0.7-1.3,1.5-1.7,2.4c-0.4,0.9-0.6,1.9-0.6,3v14.7
		C415.8,64.3,415.9,65,416.3,65.7z"/>
	<path d="M451.9,61.8c-2,5.7-3.4,10-4.2,12.9c-0.8,2.9-1.2,4.6-1.3,4.9c-0.2,0.7-0.4,1.4-0.5,1.8c-0.1,0.5-0.3,0.9-0.5,1.2
		c-0.2,0.3-0.5,0.5-0.9,0.6c-0.4,0.1-1,0.2-1.7,0.2c-0.8,0-1.3-0.2-1.7-0.6c-0.3-0.4-0.5-0.9-0.5-1.7c0-0.7,0.1-1.2,0.3-1.5
		c0.2-0.3,0.4-0.5,0.8-0.7c0.3-0.1,0.7-0.2,1.1-0.2c0.5,0,1,0,1.6-0.1c0.3,0,0.6-0.3,0.8-0.7c0.2-0.4,0.4-1.1,0.7-1.9
		c0.7-1.9,1.1-3.4,1.3-4.7c0.2-1.2,0.4-2.1,0.4-2.5c0-0.3-0.2-1-0.5-1.9l-7.4-23.4c-0.3-0.7-0.6-1.2-0.9-1.5c-0.3-0.3-0.7-0.4-1-0.5
		c-0.4-0.1-0.6-0.2-0.9-0.2c-0.2-0.1-0.4-0.3-0.4-0.6c0-0.3,0.1-0.5,0.2-0.6c0.1-0.1,0.3-0.1,0.6-0.1c0.2,0,0.6,0,1.2,0.1
		c0.6,0.1,1.4,0.1,2.5,0.1c1.4,0,2.5,0,3.3-0.1c0.8-0.1,1.4-0.1,1.8-0.1c0.6,0,0.9,0.2,0.9,0.7c0,0.3-0.2,0.5-0.5,0.6
		c-0.3,0.1-0.7,0.2-1,0.3c-0.4,0.1-0.7,0.2-1,0.4c-0.3,0.2-0.5,0.5-0.5,0.9c0,0.5,0.1,1,0.2,1.5c0.1,0.5,0.3,1.2,0.5,1.9l4.7,15.8
		c0.2,0.6,0.3,0.9,0.5,0.9c0.2,0,0.4-0.3,0.6-0.9l5-15.4c0.2-0.5,0.3-1.1,0.5-1.6c0.2-0.6,0.2-1.2,0.2-1.9c0-0.6-0.2-1-0.6-1.1
		c-0.4-0.2-0.8-0.3-1.2-0.4c-0.4-0.1-0.8-0.1-1.2-0.2c-0.4-0.1-0.6-0.3-0.6-0.7c0-0.3,0.1-0.5,0.2-0.6c0.2-0.1,0.4-0.1,0.8-0.1
		c0.2,0,0.6,0,1.2,0.1c0.7,0.1,1.6,0.1,2.7,0.1c1,0,1.9,0,2.5-0.1c0.6-0.1,1-0.1,1.1-0.1c0.5,0,0.7,0.2,0.7,0.7
		c0,0.5-0.2,0.7-0.5,0.7c-0.3,0-0.8,0.2-1.6,0.5c-0.5,0.2-0.9,0.7-1.3,1.3c-0.4,0.7-0.8,1.6-1.2,2.9L451.9,61.8z"/>
	<path d="M484.8,54.1c0,2.4,0,4.2,0,5.5c0,1.3,0,2.1,0,2.5c0,2.5-0.3,4.9-0.8,7.1c-0.5,2.2-1.7,4.5-3.4,6.8c-1.4,1.7-2.8,3-4.2,3.8
		c-1.5,0.9-2.8,1.3-4.1,1.3c-1.1,0-1.9-0.3-2.6-1c-0.6-0.7-0.9-1.5-0.9-2.6c0-0.9,0.2-1.6,0.7-2.1c0.5-0.5,1-0.8,1.6-0.8
		s1.1,0.2,1.4,0.6c0.4,0.4,0.7,0.8,0.9,1.2c0.3,0.4,0.5,0.8,0.8,1.2c0.3,0.4,0.7,0.6,1.1,0.6c0.6,0,1.2-0.4,2-1.2
		c0.8-0.8,1.4-1.9,1.9-3.5c0.3-1.3,0.6-2.8,0.7-4.6c0.1-1.8,0.1-3.9,0.1-6.3V32.8c0-1.1-0.1-1.8-0.2-2.2c-0.2-0.3-0.6-0.6-1.3-0.9
		c-0.5-0.1-1-0.2-1.4-0.2c-0.4,0-0.8-0.1-1.1-0.1c-0.3,0-0.6-0.1-0.8-0.2c-0.2-0.1-0.3-0.3-0.3-0.6c0-0.6,0.4-0.9,1.1-0.9
		c0.6,0,1.4,0.1,2.4,0.3c1,0.2,2.3,0.3,3.7,0.3c1.6,0,2.9-0.1,3.8-0.3c1-0.2,1.7-0.3,2.1-0.3c0.7,0,1,0.3,1,0.9
		c0,0.6-0.3,0.9-0.8,0.9c-0.5,0-1.2,0.1-2,0.2c-0.8,0.2-1.3,0.5-1.5,0.9c-0.2,0.4-0.2,1.1-0.2,2.2V54.1z"/>
	<path d="M527.7,27.7c0.7,0,1.2,0,1.6,0.1c0.4,0,0.6,0.1,0.8,0.3c0.2,0.1,0.3,0.4,0.3,0.7c0,0.3,0,0.7,0,1.2v5.9
		c0,0.9-0.2,1.4-0.7,1.4c-0.3,0-0.5-0.1-0.6-0.4c-0.1-0.2-0.3-0.6-0.4-1c-0.2-0.4-0.3-0.9-0.6-1.4c-0.2-0.5-0.5-1.1-1-1.6
		c-0.9-1.2-1.8-2-2.9-2.5c-1-0.5-2.4-0.8-4-0.8c-1.1,0-2.1,0.1-2.8,0.2c-0.7,0.2-1.3,0.4-1.7,0.8c-0.4,0.4-0.7,0.8-0.9,1.4
		c-0.2,0.6-0.2,1.3-0.2,2.1v10.2c0,0.6,0.1,0.9,0.2,1.1c0.1,0.2,0.4,0.3,1,0.3h3.4c1.3,0,2.3-0.1,3.1-0.4c0.8-0.3,1.4-0.6,1.7-0.9
		c0.4-0.4,0.7-0.9,0.9-1.4c0.2-0.5,0.3-0.9,0.4-1.2c0.1-0.4,0.2-0.6,0.3-0.9c0.1-0.2,0.3-0.4,0.6-0.4c0.5,0,0.8,0.4,0.8,1.2
		c0,0.4-0.1,1-0.2,1.9c-0.1,0.9-0.2,2.2-0.2,3.9c0,2,0,3.5,0.1,4.5c0,1,0.1,1.6,0.1,1.8c0,0.8-0.2,1.2-0.7,1.2
		c-0.3,0-0.5-0.1-0.6-0.4s-0.2-0.6-0.2-1.1s-0.2-1-0.3-1.6c-0.2-0.6-0.4-1.3-0.9-2.1c-0.8-1.5-2.5-2.2-5-2.2h-3.6
		c-0.4,0-0.6,0.1-0.7,0.3c-0.1,0.2-0.1,0.5-0.1,0.9V63c0,0.7,0,1.3,0.1,1.7c0,0.4,0.1,0.8,0.3,1c0.2,0.3,0.4,0.5,0.7,0.6
		c0.3,0.2,0.8,0.3,1.4,0.4c0.4,0.1,0.8,0.1,1.1,0.1c0.4,0,0.7,0,1,0.1c0.3,0,0.5,0.1,0.7,0.3c0.2,0.1,0.3,0.4,0.3,0.7
		c0,0.7-0.6,1-1.7,1c-0.7,0-1.5-0.1-2.5-0.2c-1-0.1-2.2-0.2-3.6-0.2c-1.4,0-2.6,0.1-3.5,0.2c-0.9,0.1-1.6,0.2-2,0.2
		c-0.9,0-1.4-0.3-1.4-1c0-0.3,0.1-0.5,0.2-0.7s0.3-0.2,0.6-0.3c0.2,0,0.5-0.1,0.8-0.1c0.3,0,0.6,0,0.9-0.1c1-0.3,1.6-0.6,1.8-1.1
		c0.2-0.5,0.3-1.5,0.3-2.9v-30c0-1-0.1-1.7-0.2-2.1c-0.1-0.4-0.5-0.7-1.2-0.9c-0.4-0.1-0.8-0.2-1.2-0.2c-0.4,0-0.7,0-1-0.1
		c-0.3,0-0.5-0.1-0.7-0.2c-0.2-0.1-0.3-0.3-0.3-0.7c0-0.6,0.4-0.9,1.2-0.9h6.6H527.7z"/>
	<path d="M549.9,40.1c1.6,0.7,3,1.8,4.1,3.1c1.1,1.4,2,3,2.6,4.9c0.6,1.9,0.9,4,0.9,6.4c0,2.4-0.3,4.5-0.9,6.5
		c-0.6,1.9-1.5,3.6-2.7,5c-1.2,1.4-2.6,2.4-4.2,3.2c-1.7,0.7-3.5,1.1-5.6,1.1c-1.9,0-3.6-0.4-5.1-1.1c-1.5-0.8-2.8-1.8-3.9-3.2
		c-1.1-1.4-1.9-3-2.6-5c-0.6-1.9-0.9-4-0.9-6.4c0-2.4,0.3-4.5,1-6.4c0.6-1.9,1.5-3.6,2.7-4.9c1.2-1.4,2.5-2.4,4.1-3.1
		c1.6-0.7,3.3-1.1,5.1-1.1C546.4,39,548.3,39.3,549.9,40.1z M538,43.7c-1.6,2.4-2.4,5.9-2.4,10.5c0,2.3,0.2,4.4,0.7,6.2
		c0.4,1.8,1,3.4,1.8,4.7c0.8,1.3,1.7,2.3,2.8,3c1.1,0.7,2.2,1,3.5,1c2.8,0,5-1.2,6.6-3.5c1.6-2.3,2.4-5.8,2.4-10.3
		c0-4.8-0.8-8.5-2.4-11.2c-1.6-2.6-3.7-3.9-6.4-3.9C541.7,40.1,539.6,41.3,538,43.7z"/>
	<path d="M566.2,50.6c-0.6,0-0.9,0.2-1,0.6c-0.1,0.4-0.2,1.1-0.2,2.2c0,2.2,0.3,4.1,0.8,5.8c0.5,1.7,1.2,3.1,2.1,4.3
		c0.9,1.2,2,2.1,3.2,2.7c1.2,0.6,2.6,1,4.1,1c1.4,0,2.5-0.2,3.4-0.7c0.9-0.4,1.7-0.9,2.3-1.4c0.6-0.5,1.1-1,1.4-1.4
		c0.3-0.4,0.6-0.7,0.7-0.7c0.3,0,0.5,0.2,0.5,0.5c0,0.5-0.2,1.1-0.7,1.9c-0.5,0.8-1.2,1.5-2.1,2.2c-0.9,0.7-2,1.3-3.3,1.9
		c-1.3,0.5-2.7,0.8-4.3,0.8c-1.8,0-3.4-0.4-5-1.1c-1.5-0.7-2.8-1.8-3.9-3.1c-1.1-1.4-1.9-3-2.5-4.9c-0.6-1.9-0.9-4.1-0.9-6.4
		c0-2.4,0.3-4.6,1-6.5s1.6-3.6,2.8-5c1.2-1.4,2.6-2.4,4.1-3.1c1.6-0.7,3.2-1.1,5-1.1c1.5,0,2.9,0.3,4.1,0.9c1.2,0.6,2.3,1.3,3.1,2.3
		c0.9,0.9,1.5,2,2,3.3s0.7,2.5,0.7,3.8c0,0.5-0.1,0.8-0.4,1c-0.3,0.2-0.8,0.3-1.5,0.3H566.2z M577.6,48.5c1.3-0.3,1.9-1.1,1.9-2.4
		c0-0.7-0.2-1.4-0.5-2.1c-0.3-0.7-0.7-1.3-1.3-1.9c-0.5-0.6-1.2-1-1.9-1.4c-0.7-0.4-1.5-0.5-2.4-0.5c-1,0-2.1,0.3-3,0.8
		c-1,0.5-1.8,1.2-2.5,2c-0.7,0.8-1.3,1.7-1.7,2.6c-0.4,1-0.7,1.9-0.7,2.8c0,0.1,0.1,0.3,0.2,0.4c0.1,0.1,0.3,0.2,0.5,0.2h5.4
		C574.4,49,576.3,48.8,577.6,48.5z"/>
	<path d="M593.6,44.3c0,0.3,0.1,0.5,0.3,0.5c0.1,0,0.3-0.1,0.5-0.3l1.2-1.7c1.8-2.5,3.8-3.7,5.8-3.7c1.1,0,1.9,0.3,2.6,0.9
		c0.6,0.6,0.9,1.3,0.9,2.2c0,0.9-0.2,1.6-0.7,2.1s-1,0.8-1.5,0.8c-0.4,0-0.8-0.1-1.1-0.4s-0.7-0.6-1-0.9c-0.3-0.3-0.7-0.6-1-0.9
		c-0.4-0.3-0.8-0.4-1.3-0.4c-0.5,0-1,0.2-1.5,0.6c-0.5,0.4-1,1-1.4,1.9c-0.4,0.8-0.8,1.9-1,3.2s-0.4,2.9-0.4,4.7v10.8
		c0,1.1,0.1,1.9,0.3,2.4c0.2,0.5,0.6,0.8,1.2,1.1c0.6,0.2,1.1,0.3,1.5,0.4c0.4,0,0.8,0.1,1.1,0.1c0.3,0,0.5,0.1,0.7,0.1
		c0.2,0.1,0.2,0.2,0.2,0.6c0,0.5-0.4,0.7-1,0.7c-0.6,0-1.3-0.1-2.3-0.2c-1-0.1-2.1-0.2-3.5-0.2c-0.9,0-1.6,0-2.4,0.1
		c-0.7,0.1-1.3,0.1-1.9,0.1c-0.4,0-0.6,0-0.8-0.1c-0.2-0.1-0.2-0.2-0.2-0.6c0-0.4,0.2-0.7,0.5-0.7c0.3,0,0.9-0.1,1.6-0.4
		c0.6-0.2,0.9-0.6,1.1-1.1c0.2-0.5,0.2-1.4,0.2-2.5V46.3c0-0.8-0.1-1.3-0.4-1.6c-0.3-0.3-0.6-0.4-0.9-0.5s-0.6-0.1-0.9-0.1
		c-0.3,0-0.4-0.2-0.4-0.5c0-0.3,0.2-0.6,0.7-0.8s1-0.5,1.5-0.9c1-0.7,1.7-1.4,2.3-2.1c0.5-0.7,0.9-1,1.2-1c0.2,0,0.3,0.1,0.4,0.4
		c0,0.3,0,0.7,0,1.1V44.3z"/>
	<path d="M619.2,39.2c0.8,0.2,1.3,0.4,1.7,0.7c0.4,0.3,0.6,0.6,0.7,1c0.1,0.4,0.1,0.8,0.1,1.2v2.7c0,0.9-0.2,1.3-0.6,1.3
		s-0.6-0.3-0.7-0.8c0-0.5-0.4-1.3-0.9-2.3c-0.6-1-1.3-1.7-2.1-2.2c-0.8-0.5-1.7-0.7-2.6-0.7c-1.3,0-2.3,0.4-3.2,1.3
		c-0.9,0.9-1.3,2.1-1.3,3.5c0,1.5,0.4,2.7,1.3,3.6c0.9,0.9,2.2,1.7,3.9,2.6c1.1,0.6,2.2,1.1,3.1,1.6s1.7,1.1,2.4,1.8
		c0.7,0.7,1.2,1.4,1.5,2.3c0.4,0.9,0.6,2,0.6,3.4c0,3.1-0.9,5.5-2.6,7.3c-1.7,1.8-4.1,2.7-7.2,2.7c-0.9,0-1.7-0.1-2.6-0.3
		s-1.6-0.4-2.3-0.8s-1.2-0.7-1.7-1.1c-0.4-0.4-0.7-0.9-0.7-1.4c0-0.3,0-1,0.1-1.9c0-0.9,0.1-2.2,0.1-3.7c0-0.7,0.2-1.1,0.7-1.1
		c0.4,0,0.6,0.3,0.8,1c0.1,0.7,0.4,1.8,0.8,3.3c0.4,1.6,1,2.8,1.8,3.6c0.8,0.8,2,1.2,3.6,1.2c1.8,0,3.3-0.6,4.4-1.8s1.7-2.8,1.7-4.8
		c0-1.7-0.5-3.1-1.4-4.1c-1-1-2.4-1.9-4.4-2.9c-2.4-1.1-4.2-2.3-5.3-3.5s-1.7-2.7-1.7-4.7c0-2.5,0.8-4.5,2.4-6.1
		c1.6-1.6,3.8-2.4,6.6-2.4C617.4,39,618.4,39,619.2,39.2z"/>
	<path d="M633.8,39c0,0.4,0.1,0.7,0.2,0.9c0.1,0.2,0.4,0.2,0.8,0.2h4.9c0.4,0,0.6,0.1,0.7,0.2c0.1,0.1,0.1,0.3,0.1,0.7v0.3
		c0,0.4-0.1,0.7-0.2,0.9c-0.1,0.2-0.3,0.3-0.7,0.3h-4.9c-0.4,0-0.6,0.1-0.8,0.2c-0.1,0.2-0.2,0.4-0.2,0.9v19.1c0,3.3,1,5,3.1,5
		c0.6,0,1.1-0.1,1.6-0.4c0.5-0.3,0.9-0.5,1.3-0.8c0.4-0.3,0.7-0.6,1-0.8c0.3-0.3,0.5-0.4,0.6-0.4c0.2,0,0.3,0.2,0.3,0.5
		c0,0.2-0.2,0.6-0.5,1.1c-0.3,0.5-0.8,1-1.4,1.5c-0.6,0.5-1.3,1-2,1.3c-0.8,0.4-1.6,0.6-2.4,0.6c-1.7,0-3-0.7-4-2
		c-0.9-1.4-1.4-3.3-1.4-6v-3.1l0.2-15.7c0-0.4-0.1-0.7-0.2-0.9c-0.1-0.2-0.4-0.2-0.8-0.2h-1c-0.7,0-1-0.2-1-0.6c0-0.3,0.3-0.8,1-1.3
		c0.7-0.5,1.5-1.3,2.5-2.5c1-1.1,1.6-2.1,1.9-3c0.3-0.8,0.6-1.2,1-1.2c0.2,0,0.3,0.3,0.3,0.8v1V39z"/>
	<path d="M649.3,50.6c-0.6,0-0.9,0.2-1,0.6c-0.1,0.4-0.2,1.1-0.2,2.2c0,2.2,0.3,4.1,0.8,5.8c0.5,1.7,1.2,3.1,2.1,4.3
		c0.9,1.2,2,2.1,3.2,2.7c1.2,0.6,2.6,1,4.1,1c1.4,0,2.5-0.2,3.4-0.7c0.9-0.4,1.7-0.9,2.3-1.4c0.6-0.5,1.1-1,1.4-1.4
		c0.3-0.4,0.6-0.7,0.7-0.7c0.3,0,0.5,0.2,0.5,0.5c0,0.5-0.2,1.1-0.7,1.9c-0.5,0.8-1.2,1.5-2.1,2.2c-0.9,0.7-2,1.3-3.3,1.9
		c-1.3,0.5-2.7,0.8-4.3,0.8c-1.8,0-3.4-0.4-5-1.1c-1.5-0.7-2.8-1.8-3.9-3.1c-1.1-1.4-1.9-3-2.5-4.9c-0.6-1.9-0.9-4.1-0.9-6.4
		c0-2.4,0.3-4.6,1-6.5s1.6-3.6,2.8-5c1.2-1.4,2.6-2.4,4.1-3.1c1.6-0.7,3.2-1.1,5-1.1c1.5,0,2.9,0.3,4.1,0.9c1.2,0.6,2.3,1.3,3.1,2.3
		c0.9,0.9,1.5,2,2,3.3s0.7,2.5,0.7,3.8c0,0.5-0.1,0.8-0.4,1c-0.3,0.2-0.8,0.3-1.5,0.3H649.3z M660.8,48.5c1.3-0.3,1.9-1.1,1.9-2.4
		c0-0.7-0.2-1.4-0.5-2.1c-0.3-0.7-0.7-1.3-1.3-1.9c-0.5-0.6-1.2-1-1.9-1.4c-0.7-0.4-1.5-0.5-2.4-0.5c-1,0-2.1,0.3-3,0.8
		c-1,0.5-1.8,1.2-2.5,2c-0.7,0.8-1.3,1.7-1.7,2.6c-0.4,1-0.7,1.9-0.7,2.8c0,0.1,0.1,0.3,0.2,0.4c0.1,0.1,0.3,0.2,0.5,0.2h5.4
		C657.5,49,659.5,48.8,660.8,48.5z"/>
	<path d="M676.8,44.3c0,0.3,0.1,0.5,0.3,0.5c0.1,0,0.3-0.1,0.5-0.3l1.2-1.7c1.8-2.5,3.8-3.7,5.8-3.7c1.1,0,1.9,0.3,2.6,0.9
		c0.6,0.6,0.9,1.3,0.9,2.2c0,0.9-0.2,1.6-0.7,2.1s-1,0.8-1.5,0.8c-0.4,0-0.8-0.1-1.1-0.4s-0.7-0.6-1-0.9c-0.3-0.3-0.7-0.6-1-0.9
		c-0.4-0.3-0.8-0.4-1.3-0.4c-0.5,0-1,0.2-1.5,0.6c-0.5,0.4-1,1-1.4,1.9c-0.4,0.8-0.8,1.9-1,3.2S677,51,677,52.8v10.8
		c0,1.1,0.1,1.9,0.3,2.4c0.2,0.5,0.6,0.8,1.2,1.1c0.6,0.2,1.1,0.3,1.5,0.4c0.4,0,0.8,0.1,1.1,0.1c0.3,0,0.5,0.1,0.7,0.1
		c0.2,0.1,0.2,0.2,0.2,0.6c0,0.5-0.4,0.7-1,0.7c-0.6,0-1.3-0.1-2.3-0.2c-1-0.1-2.1-0.2-3.5-0.2c-0.9,0-1.6,0-2.4,0.1
		c-0.7,0.1-1.3,0.1-1.9,0.1c-0.4,0-0.6,0-0.8-0.1c-0.2-0.1-0.2-0.2-0.2-0.6c0-0.4,0.2-0.7,0.5-0.7c0.3,0,0.9-0.1,1.6-0.4
		c0.6-0.2,0.9-0.6,1.1-1.1c0.2-0.5,0.2-1.4,0.2-2.5V46.3c0-0.8-0.1-1.3-0.4-1.6c-0.3-0.3-0.6-0.4-0.9-0.5s-0.6-0.1-0.9-0.1
		c-0.3,0-0.4-0.2-0.4-0.5c0-0.3,0.2-0.6,0.7-0.8s1-0.5,1.5-0.9c1-0.7,1.7-1.4,2.3-2.1c0.5-0.7,0.9-1,1.2-1c0.2,0,0.3,0.1,0.4,0.4
		c0,0.3,0,0.7,0,1.1V44.3z"/>
	<path d="M719.1,43.7c-0.5,0.3-0.7,0.6-0.7,0.8s0.1,0.4,0.2,0.6l7.1,9.7c0.3,0.4,0.5,0.7,0.7,0.7c0.2,0,0.5-0.3,0.9-1l1.8-3.1
		c0.6-1,1-1.9,1.2-2.6c0.2-0.7,0.4-1.3,0.4-1.7c0-0.6-0.2-1-0.6-1.1c-0.4-0.2-0.8-0.3-1.3-0.4c-0.5-0.1-0.9-0.2-1.3-0.3
		c-0.4-0.1-0.6-0.3-0.6-0.7c0-0.6,0.4-0.9,1.3-0.9c0.4,0,1,0.1,2,0.2s2.1,0.2,3.5,0.2c0.8,0,1.5,0,2-0.1c0.5-0.1,1-0.1,1.3-0.1
		c0.5,0,0.7,0.2,0.7,0.7s-0.2,0.8-0.7,0.8s-1.1,0.3-1.8,0.7c-0.9,0.5-1.8,1.3-2.7,2.6c-0.9,1.2-2,2.9-3.2,5l-1.6,2.8
		c-0.2,0.4-0.3,0.6-0.3,0.8s0.1,0.4,0.4,0.7l3.1,4.5c0.7,1,1.4,1.8,2,2.6c0.6,0.8,1.4,1.4,2.4,1.8c0.7,0.3,1.3,0.5,1.7,0.5
		c0.4,0,0.6,0.3,0.6,0.7c0,0.7-0.5,1-1.4,1c-0.7,0-1.6-0.1-2.5-0.2c-0.9-0.2-1.9-0.2-2.9-0.2c-1,0-2,0.1-2.9,0.2
		c-0.9,0.2-1.7,0.2-2.5,0.2c-0.9,0-1.4-0.3-1.4-0.9c0-0.3,0.2-0.5,0.5-0.6c0.4-0.1,0.7-0.2,1.2-0.2c0.4-0.1,0.8-0.2,1.2-0.4
		c0.4-0.2,0.5-0.5,0.5-1c0-0.2-0.1-0.5-0.2-1c-0.1-0.4-0.4-0.9-0.7-1.4l-1.1-1.6c-0.1-0.2-0.4-0.3-0.7-0.3s-0.7,0.4-1.1,1.1
		c-0.4,0.7-1.2,1.6-2.2,2.7c-2.9,3.1-6.1,4.7-9.5,4.7c-1.4,0-2.6-0.3-3.8-0.9c-1.1-0.6-2.1-1.4-2.9-2.4c-0.8-1-1.4-2.2-1.9-3.6
		c-0.4-1.4-0.7-3-0.7-4.7c0-2.3,0.6-4.4,1.8-6.3c1.2-1.9,2.9-3.6,5.2-5l2.5-1.5c0.2-0.1,0.3-0.2,0.4-0.3c0.1-0.1,0.1-0.2,0.1-0.3
		c0-0.3-0.1-0.5-0.2-0.7l-1.1-1.6c-0.9-1.2-1.5-2.4-1.9-3.5c-0.4-1.1-0.6-2.4-0.6-3.8c0-1.3,0.2-2.5,0.7-3.6
		c0.5-1.1,1.1-2.1,1.9-2.9c0.8-0.8,1.8-1.5,2.9-1.9c1.1-0.5,2.3-0.7,3.5-0.7c1.4,0,2.6,0.2,3.8,0.6c1.1,0.4,2.1,1,2.9,1.7
		c0.8,0.7,1.4,1.6,1.8,2.6c0.4,1,0.7,2.1,0.7,3.2c0,0.9-0.1,1.7-0.4,2.5c-0.3,0.7-0.6,1.4-1.2,2c-0.5,0.6-1.1,1.2-1.9,1.7
		c-0.8,0.5-1.7,1.1-2.7,1.7L719.1,43.7z M713.9,47c-0.3,0-0.6,0.1-0.8,0.3l-1.8,1.2c-0.7,0.5-1.4,1-2,1.6c-0.6,0.5-1,1.1-1.4,1.7
		c-0.4,0.6-0.7,1.3-0.9,2.1c-0.2,0.8-0.3,1.7-0.3,2.8c0,1.4,0.2,2.8,0.6,4c0.4,1.2,0.9,2.3,1.6,3.2c0.7,0.9,1.5,1.6,2.5,2.1
		c0.9,0.5,2,0.7,3,0.7s2.2-0.3,3.2-0.8s2-1.2,2.9-1.9c0.8-0.7,1.5-1.5,2-2.2c0.5-0.7,0.8-1.3,0.8-1.8c0-0.3-0.1-0.5-0.3-0.8
		l-8.6-11.8C714.4,47.1,714.2,47,713.9,47z M723.5,34.9c0-2.1-0.6-3.8-1.7-5.2c-1.1-1.4-2.5-2-4.2-2c-1.5,0-2.7,0.5-3.7,1.5
		c-0.9,1-1.4,2.4-1.4,4.2c0,2.2,0.7,4.3,2.2,6.2l1.7,2.4c0.3,0.4,0.6,0.7,0.9,0.7c0.3,0,0.5-0.1,0.8-0.3l1.6-1
		C722.2,39.9,723.5,37.7,723.5,34.9z"/>
	<path d="M760.8,27.7c0.4,0,0.7,0,0.9,0.1c0.2,0.1,0.4,0.3,0.7,0.7l17.4,29.2c0.3,0.5,0.5,0.7,0.7,0.7c0.2,0,0.3-0.3,0.3-0.9V40.1
		c0-3,0-5.3-0.1-7c-0.1-1.6-0.4-2.7-1-3.1c-0.3-0.3-0.6-0.4-1-0.4c-0.4,0-0.8,0-1.1-0.1c-0.3,0-0.6-0.1-0.9-0.2
		c-0.2-0.1-0.4-0.3-0.4-0.7c0-0.7,0.5-1,1.5-1c0.5,0,1,0,1.6,0.1c0.6,0.1,1.3,0.1,2.1,0.1c0.9,0,1.6,0,2.3-0.1
		c0.7-0.1,1.2-0.1,1.6-0.1c1,0,1.5,0.3,1.5,1c0,0.4-0.1,0.6-0.3,0.7c-0.2,0.1-0.5,0.2-0.9,0.2h-0.7c-0.6,0-1.1,0.2-1.4,0.5
		c-0.4,0.3-0.6,0.8-0.8,1.5c-0.2,0.7-0.3,1.6-0.3,2.7c0,1.1-0.1,2.5-0.1,4V69c0,0.3-0.1,0.5-0.3,0.5c-0.1,0-0.3-0.2-0.5-0.5
		l-21-35.3c-0.2-0.3-0.4-0.5-0.7-0.5c-0.2,0-0.3,0.4-0.3,1.1v23.3c0,1.7,0,3.2,0,4.4c0,1.2,0.1,2.2,0.3,3c0.2,0.8,0.4,1.3,0.7,1.6
		c0.3,0.3,0.8,0.5,1.4,0.5c0.1,0,0.2,0,0.5,0c0.2,0,0.5,0,0.8,0c0.6,0,0.9,0.4,0.9,1c0,0.7-0.5,1-1.6,1c-0.6,0-1.1,0-1.7-0.1
		c-0.6-0.1-1.2-0.1-1.9-0.1c-0.8,0-1.6,0-2.2,0.1c-0.7,0.1-1.2,0.1-1.7,0.1c-1,0-1.5-0.4-1.5-1.1c0-0.6,0.3-0.9,0.9-0.9
		c0.2,0,0.4,0,0.6,0c0.2,0,0.4,0,0.6,0c0.6,0,1-0.2,1.3-0.5c0.3-0.3,0.6-0.9,0.8-1.6c0.2-0.8,0.3-1.7,0.3-2.9c0-1.2,0-2.7,0-4.4
		V32.8c0-1-0.1-1.7-0.2-2.1c-0.1-0.4-0.5-0.7-1.1-0.9c-0.4-0.1-0.8-0.2-1.1-0.2c-0.4,0-0.6,0-0.9-0.1c-0.2,0-0.4-0.1-0.6-0.2
		c-0.2-0.1-0.2-0.3-0.2-0.7c0-0.6,0.3-0.9,0.9-0.9H760.8z"/>
	<path d="M811.7,47.2c0,0.4,0.1,0.7,0.2,0.7c0.1,0,0.3-0.2,0.7-0.7l11.3-14.3c0.5-0.7,0.8-1.3,0.8-1.8c0-0.6-0.2-0.9-0.5-1.1
		c-0.4-0.2-0.7-0.3-1.2-0.3c-0.4-0.1-0.8-0.1-1.2-0.2c-0.4-0.1-0.5-0.3-0.5-0.8c0-0.6,0.3-0.9,0.9-0.9c0.4,0,1,0.1,1.9,0.3
		c0.9,0.2,1.9,0.3,3.2,0.3c1.4,0,2.6-0.1,3.4-0.3c0.9-0.2,1.5-0.3,1.9-0.3c0.6,0,0.9,0.3,0.9,0.9c0,0.4-0.2,0.6-0.5,0.7
		c-0.4,0-0.9,0.2-1.5,0.4c-0.7,0.2-1.5,0.6-2.4,1.2c-0.9,0.6-2,1.6-3.2,3.1l-7.7,9.4c-0.3,0.3-0.4,0.5-0.4,0.8c0,0.1,0,0.2,0.1,0.4
		l11.6,18.7c0.6,1,1.2,1.8,1.7,2.4c0.5,0.6,1.1,1,1.7,1.3c0.3,0.1,0.6,0.2,0.9,0.3c0.3,0,0.5,0.1,0.8,0.1c0.2,0,0.4,0.1,0.5,0.2
		c0.1,0.1,0.2,0.3,0.2,0.6c0,0.6-0.5,0.9-1.5,0.9c-0.5,0-1.3-0.1-2.2-0.2c-0.9-0.1-2.1-0.2-3.4-0.2c-1.2,0-2.2,0.1-3,0.2
		c-0.8,0.1-1.3,0.2-1.7,0.2c-0.5,0-0.9-0.1-1.1-0.3c-0.3-0.2-0.4-0.4-0.4-0.6c0-0.6,0.5-0.9,1.5-0.9c1.3,0,2-0.3,2-1
		c0-0.3-0.2-0.9-0.5-1.7c-0.3-0.8-0.8-1.8-1.5-2.9l-8.4-13.4c-0.2-0.3-0.4-0.5-0.5-0.5c-0.2,0-0.3,0.1-0.5,0.3l-1.8,2.2
		c-0.2,0.3-0.4,0.5-0.4,0.7s-0.1,0.5-0.1,0.9v11c0,0.7,0,1.3,0,1.7c0,0.5,0.1,0.8,0.2,1.1c0.1,0.3,0.3,0.5,0.7,0.7
		c0.3,0.2,0.7,0.3,1.3,0.5c0.3,0.1,0.6,0.1,0.9,0.1c0.3,0,0.6,0,0.9,0.1c0.2,0.1,0.4,0.2,0.6,0.3c0.2,0.1,0.2,0.4,0.2,0.7
		c0,0.6-0.5,0.9-1.4,0.9c-0.5,0-1.2-0.1-2.1-0.2c-0.9-0.1-2.1-0.2-3.5-0.2c-1.4,0-2.6,0.1-3.5,0.2c-1,0.1-1.7,0.2-2.2,0.2
		c-1,0-1.4-0.3-1.4-1c0-0.3,0.1-0.5,0.2-0.7c0.2-0.1,0.4-0.2,0.6-0.3c0.3,0,0.5-0.1,0.9-0.1c0.3,0,0.6,0,1-0.1
		c0.5-0.1,0.9-0.3,1.2-0.4c0.3-0.2,0.5-0.4,0.7-0.7c0.2-0.3,0.2-0.7,0.3-1.1c0-0.4,0-1,0-1.8v-30c0-1-0.1-1.8-0.2-2.1
		c-0.2-0.4-0.6-0.7-1.2-0.9c-0.4-0.1-0.9-0.2-1.2-0.2c-0.4,0-0.7,0-1-0.1c-0.3,0-0.5-0.1-0.7-0.2c-0.2-0.1-0.2-0.3-0.2-0.7
		c0-0.6,0.3-0.9,1-0.9c0.5,0,1.2,0.1,2.1,0.3c0.9,0.2,2.1,0.3,3.5,0.3c1.6,0,2.8-0.1,3.8-0.3c1-0.2,1.7-0.3,2.1-0.3
		c0.7,0,1,0.3,1,0.9c0,0.3-0.1,0.5-0.2,0.6c-0.1,0.1-0.3,0.2-0.6,0.2c-0.3,0-0.6,0.1-0.9,0.1c-0.4,0-0.7,0.1-1.1,0.2
		c-0.8,0.2-1.3,0.5-1.5,0.9c-0.2,0.4-0.2,1.1-0.2,2.2V47.2z"/>
	<path d="M841.9,44.3c0,0.3,0.1,0.5,0.3,0.5c0.1,0,0.3-0.1,0.5-0.3l1.2-1.7c1.8-2.5,3.8-3.7,5.8-3.7c1.1,0,1.9,0.3,2.6,0.9
		c0.6,0.6,0.9,1.3,0.9,2.2c0,0.9-0.2,1.6-0.7,2.1s-1,0.8-1.5,0.8c-0.4,0-0.8-0.1-1.1-0.4s-0.7-0.6-1-0.9c-0.3-0.3-0.7-0.6-1-0.9
		c-0.4-0.3-0.8-0.4-1.3-0.4c-0.5,0-1,0.2-1.5,0.6c-0.5,0.4-1,1-1.4,1.9c-0.4,0.8-0.8,1.9-1,3.2s-0.4,2.9-0.4,4.7v10.8
		c0,1.1,0.1,1.9,0.3,2.4c0.2,0.5,0.6,0.8,1.2,1.1c0.6,0.2,1.1,0.3,1.5,0.4c0.4,0,0.8,0.1,1.1,0.1c0.3,0,0.5,0.1,0.7,0.1
		c0.2,0.1,0.2,0.2,0.2,0.6c0,0.5-0.4,0.7-1,0.7c-0.6,0-1.3-0.1-2.3-0.2c-1-0.1-2.1-0.2-3.5-0.2c-0.9,0-1.6,0-2.4,0.1
		c-0.7,0.1-1.3,0.1-1.9,0.1c-0.4,0-0.6,0-0.8-0.1c-0.2-0.1-0.2-0.2-0.2-0.6c0-0.4,0.2-0.7,0.5-0.7c0.3,0,0.9-0.1,1.6-0.4
		c0.6-0.2,0.9-0.6,1.1-1.1c0.2-0.5,0.2-1.4,0.2-2.5V46.3c0-0.8-0.1-1.3-0.4-1.6c-0.3-0.3-0.6-0.4-0.9-0.5s-0.6-0.1-0.9-0.1
		c-0.3,0-0.4-0.2-0.4-0.5c0-0.3,0.2-0.6,0.7-0.8s1-0.5,1.5-0.9c1-0.7,1.7-1.4,2.3-2.1c0.5-0.7,0.9-1,1.2-1c0.2,0,0.3,0.1,0.4,0.4
		c0,0.3,0,0.7,0,1.1V44.3z"/>
	<path d="M871.8,62.8c0,2.7,0.6,4.1,1.8,4.1c0.5,0,0.9-0.2,1.3-0.7c0.4-0.5,0.8-0.7,1-0.7c0.3,0,0.5,0.2,0.5,0.5
		c0,0.4-0.2,0.8-0.6,1.2s-0.8,0.9-1.3,1.3c-0.5,0.4-1.1,0.8-1.7,1.1c-0.6,0.3-1.1,0.4-1.5,0.4c-0.9,0-1.5-0.3-2-1
		c-0.5-0.7-0.9-1.8-1.3-3.3h-0.3c-1.7,1.4-3.1,2.5-4.4,3.3c-1.3,0.8-2.6,1.2-4,1.2c-1.6,0-2.8-0.5-3.7-1.4c-0.9-0.9-1.3-2.2-1.3-3.8
		c0-1.2,0.3-2.4,0.9-3.4s1.4-2.1,2.6-3.1c1.2-1,2.6-2.1,4.3-3.2s3.7-2.3,5.9-3.5V46c0-2-0.2-3.5-0.6-4.3c-0.4-0.9-1.3-1.3-2.7-1.3
		c-1.1,0-2.2,0.4-3.2,1.2c-1,0.8-1.7,1.7-2.1,2.8c-0.5,1.4-1,2.5-1.4,3.4c-0.5,0.9-1.3,1.4-2.6,1.4c-0.3,0-0.6-0.1-0.8-0.3
		c-0.2-0.2-0.3-0.5-0.3-0.8c0-0.8,0.3-1.7,0.9-2.8c0.6-1,1.4-2.1,2.4-3c1-1,2.3-1.8,3.7-2.4c1.4-0.7,3-1,4.7-1
		c1.4,0,2.4,0.2,3.2,0.5c0.8,0.4,1.4,0.9,1.8,1.5s0.6,1.4,0.7,2.4s0.1,1.9,0.1,3.1V62.8z M867.6,53.7c-0.1,0-0.4,0.1-0.7,0.3l-2,1.1
		c-4.5,2.6-6.7,5.3-6.7,8.2c0,1.2,0.3,2.2,0.9,2.9c0.6,0.7,1.5,1.1,2.6,1.1c0.7,0,1.3-0.2,2.1-0.5c0.7-0.3,1.4-0.8,2-1.3
		c0.6-0.6,1.1-1.3,1.5-2.2c0.4-0.9,0.6-1.8,0.6-2.9v-6C868,53.9,867.9,53.7,867.6,53.7z"/>
	<path d="M884.8,43.6c0,0.5,0.1,0.7,0.3,0.7s0.4-0.3,0.7-1c0.3-0.6,0.9-1.3,1.7-2.1c0.9-0.8,1.7-1.4,2.6-1.8
		c0.8-0.4,1.7-0.6,2.7-0.6c1.8,0,3.2,0.5,4.4,1.5c1.1,1,2.1,2.5,2.8,4.6h0.3c1.3-2.1,2.5-3.6,3.8-4.6c1.3-1,2.7-1.5,4.2-1.5
		c2.3,0,4.1,0.9,5.5,2.7c1.4,1.8,2.1,4.2,2.1,7.3c0,0.2,0,0.7,0,1.3c0,0.7,0,1.6,0,2.7v12c0,0.9,0.2,1.5,0.5,1.9
		c0.3,0.3,0.7,0.5,1.1,0.7c0.4,0.1,0.8,0.2,1.1,0.3c0.3,0.1,0.5,0.3,0.5,0.6c0,0.3-0.1,0.5-0.2,0.6c-0.1,0.1-0.4,0.1-0.7,0.1
		c-0.3,0-0.7,0-1.4-0.1c-0.7-0.1-1.5-0.1-2.6-0.1c-0.9,0-1.8,0-2.4,0.1c-0.7,0.1-1.2,0.1-1.7,0.1c-0.4,0-0.6,0-0.8-0.1
		s-0.2-0.2-0.2-0.6c0-0.3,0.2-0.6,0.5-0.6s0.7-0.2,1.1-0.3c0.4-0.1,0.8-0.4,1.1-0.7s0.5-0.9,0.5-1.8V51.8c0-3.4-0.4-6-1.2-7.7
		c-0.8-1.7-2.3-2.6-4.4-2.6c-1.7,0-3.2,0.8-4.3,2.3s-1.8,3.9-1.8,7.1l-0.1,14c0,0.9,0.2,1.5,0.5,1.8s0.7,0.6,1.1,0.7
		c0.4,0.1,0.8,0.2,1.1,0.3s0.5,0.3,0.5,0.6c0,0.3-0.1,0.5-0.2,0.6c-0.1,0.1-0.4,0.1-0.7,0.1c-0.3,0-0.8,0-1.4-0.1
		c-0.7-0.1-1.5-0.1-2.5-0.1c-1.2,0-2.1,0-2.8,0.1c-0.7,0.1-1.2,0.1-1.4,0.1c-0.4,0-0.6,0-0.7-0.1c-0.1-0.1-0.2-0.2-0.2-0.6
		c0-0.3,0.2-0.6,0.5-0.6c0.3-0.1,0.7-0.2,1.1-0.3c0.4-0.1,0.8-0.4,1.1-0.7c0.3-0.3,0.5-0.9,0.5-1.8V51.8c0-3.4-0.4-6-1.3-7.7
		c-0.8-1.7-2.3-2.6-4.4-2.6c-1.7,0-3.2,0.8-4.4,2.4c-1.2,1.6-1.8,3.9-1.8,7v14c0,0.9,0.2,1.5,0.5,1.9c0.3,0.3,0.7,0.5,1.2,0.7
		c0.4,0.1,0.8,0.2,1.2,0.3c0.3,0.1,0.5,0.3,0.5,0.6c0,0.3-0.1,0.5-0.2,0.6c-0.2,0.1-0.4,0.1-0.8,0.1c-0.2,0-0.6,0-1.3-0.1
		c-0.7-0.1-1.7-0.1-2.9-0.1c-0.9,0-1.7,0-2.4,0.1c-0.7,0.1-1.3,0.1-1.8,0.1c-0.4,0-0.6,0-0.8-0.1c-0.2-0.1-0.2-0.3-0.2-0.6
		c0-0.3,0.2-0.6,0.5-0.6c0.3-0.1,0.7-0.2,1.2-0.3c0.4-0.1,0.8-0.4,1.2-0.7c0.3-0.3,0.5-0.9,0.5-1.8V46.3c0-0.8-0.1-1.3-0.4-1.6
		s-0.6-0.4-0.9-0.5c-0.3,0-0.6-0.1-0.9-0.1c-0.3,0-0.4-0.2-0.4-0.5c0-0.4,0.2-0.7,0.7-0.8c0.5-0.2,0.9-0.4,1.4-0.8
		c1.1-0.8,2-1.5,2.5-2.2s0.9-1,1.1-1c0.2,0,0.3,0.1,0.4,0.4c0,0.3,0,0.7,0,1.1V43.6z"/>
	<path d="M927.6,50.6c-0.6,0-0.9,0.2-1,0.6c-0.1,0.4-0.2,1.1-0.2,2.2c0,2.2,0.3,4.1,0.8,5.8c0.5,1.7,1.2,3.1,2.1,4.3
		c0.9,1.2,2,2.1,3.2,2.7c1.2,0.6,2.6,1,4.1,1c1.4,0,2.5-0.2,3.4-0.7c0.9-0.4,1.7-0.9,2.3-1.4c0.6-0.5,1.1-1,1.4-1.4
		c0.3-0.4,0.6-0.7,0.7-0.7c0.3,0,0.5,0.2,0.5,0.5c0,0.5-0.2,1.1-0.7,1.9c-0.5,0.8-1.2,1.5-2.1,2.2c-0.9,0.7-2,1.3-3.3,1.9
		c-1.3,0.5-2.7,0.8-4.3,0.8c-1.8,0-3.4-0.4-5-1.1c-1.5-0.7-2.8-1.8-3.9-3.1c-1.1-1.4-1.9-3-2.5-4.9c-0.6-1.9-0.9-4.1-0.9-6.4
		c0-2.4,0.3-4.6,1-6.5s1.6-3.6,2.8-5c1.2-1.4,2.6-2.4,4.1-3.1c1.6-0.7,3.2-1.1,5-1.1c1.5,0,2.9,0.3,4.1,0.9c1.2,0.6,2.3,1.3,3.1,2.3
		c0.9,0.9,1.5,2,2,3.3s0.7,2.5,0.7,3.8c0,0.5-0.1,0.8-0.4,1c-0.3,0.2-0.8,0.3-1.5,0.3H927.6z M939,48.5c1.3-0.3,1.9-1.1,1.9-2.4
		c0-0.7-0.2-1.4-0.5-2.1c-0.3-0.7-0.7-1.3-1.3-1.9c-0.5-0.6-1.2-1-1.9-1.4c-0.7-0.4-1.5-0.5-2.4-0.5c-1,0-2.1,0.3-3,0.8
		c-1,0.5-1.8,1.2-2.5,2c-0.7,0.8-1.3,1.7-1.7,2.6c-0.4,1-0.7,1.9-0.7,2.8c0,0.1,0.1,0.3,0.2,0.4c0.1,0.1,0.3,0.2,0.5,0.2h5.4
		C935.7,49,937.7,48.8,939,48.5z"/>
	<path d="M955,44.3c0,0.3,0.1,0.5,0.3,0.5c0.1,0,0.3-0.1,0.5-0.3l1.2-1.7c1.8-2.5,3.8-3.7,5.8-3.7c1.1,0,1.9,0.3,2.6,0.9
		c0.6,0.6,0.9,1.3,0.9,2.2c0,0.9-0.2,1.6-0.7,2.1s-1,0.8-1.5,0.8c-0.4,0-0.8-0.1-1.1-0.4s-0.7-0.6-1-0.9c-0.3-0.3-0.7-0.6-1-0.9
		c-0.4-0.3-0.8-0.4-1.3-0.4c-0.5,0-1,0.2-1.5,0.6c-0.5,0.4-1,1-1.4,1.9c-0.4,0.8-0.8,1.9-1,3.2s-0.4,2.9-0.4,4.7v10.8
		c0,1.1,0.1,1.9,0.3,2.4c0.2,0.5,0.6,0.8,1.2,1.1c0.6,0.2,1.1,0.3,1.5,0.4c0.4,0,0.8,0.1,1.1,0.1c0.3,0,0.5,0.1,0.7,0.1
		c0.2,0.1,0.2,0.2,0.2,0.6c0,0.5-0.4,0.7-1,0.7c-0.6,0-1.3-0.1-2.3-0.2c-1-0.1-2.1-0.2-3.5-0.2c-0.9,0-1.6,0-2.4,0.1
		c-0.7,0.1-1.3,0.1-1.9,0.1c-0.4,0-0.6,0-0.8-0.1c-0.2-0.1-0.2-0.2-0.2-0.6c0-0.4,0.2-0.7,0.5-0.7c0.3,0,0.9-0.1,1.6-0.4
		c0.6-0.2,0.9-0.6,1.1-1.1c0.2-0.5,0.2-1.4,0.2-2.5V46.3c0-0.8-0.1-1.3-0.4-1.6c-0.3-0.3-0.6-0.4-0.9-0.5s-0.6-0.1-0.9-0.1
		c-0.3,0-0.4-0.2-0.4-0.5c0-0.3,0.2-0.6,0.7-0.8s1-0.5,1.5-0.9c1-0.7,1.7-1.4,2.3-2.1c0.5-0.7,0.9-1,1.2-1c0.2,0,0.3,0.1,0.4,0.4
		c0,0.3,0,0.7,0,1.1V44.3z"/>
</g>
</svg>
