<svg xmlns="http://www.w3.org/2000/svg" viewBox="0 0 147.49 38.02"><g id="Layer_2" data-name="Layer 2"><g id="Layer_1-2" data-name="Layer 1"><path d="M54.37,5.69a.45.45,0,0,0,0,.24s.1.06.21.06H59c.11,0,.17,0,.2-.06a.62.62,0,0,0,0-.24V2.52a2,2,0,0,0,0-.59.47.47,0,0,0-.32-.24,1.48,1.48,0,0,0-.35-.05l-.26,0a.38.38,0,0,1-.18-.06A.24.24,0,0,1,58,1.37c0-.17.09-.25.27-.25a3.06,3.06,0,0,1,.57.07,5,5,0,0,0,1,.07,6,6,0,0,0,1-.07,3.55,3.55,0,0,1,.59-.07.22.22,0,0,1,.25.25.25.25,0,0,1,0,.17.34.34,0,0,1-.16.06l-.24,0a1.76,1.76,0,0,0-.31,0c-.22.05-.36.13-.4.25a2,2,0,0,0-.06.6v8.71a1.13,1.13,0,0,0,.06.3.43.43,0,0,0,.13.19.68.68,0,0,0,.27.12.89.89,0,0,0,.31.06.94.94,0,0,1,.25,0,.37.37,0,0,1,.18.08.24.24,0,0,1,.07.2c0,.17-.12.26-.37.26a5.58,5.58,0,0,1-.56-.05,11.42,11.42,0,0,0-1.91,0,5.58,5.58,0,0,1-.56.05c-.26,0-.39-.1-.39-.29a.22.22,0,0,1,.06-.18.26.26,0,0,1,.16-.07.82.82,0,0,1,.23,0,.77.77,0,0,0,.25,0,1.36,1.36,0,0,0,.33-.12.44.44,0,0,0,.17-.19.68.68,0,0,0,.06-.31c0-.12,0-.28,0-.48V6.86a.62.62,0,0,0,0-.24s-.09-.07-.2-.07H54.62c-.11,0-.18,0-.21.07a.45.45,0,0,0,0,.24v3.9c0,.2,0,.35,0,.47a.85.85,0,0,0,0,.3.45.45,0,0,0,.14.19.68.68,0,0,0,.27.12.84.84,0,0,0,.3.06.94.94,0,0,1,.25,0,.3.3,0,0,1,.18.08.25.25,0,0,1,.08.2c0,.17-.13.26-.38.26a5.58,5.58,0,0,1-.56-.05,11.42,11.42,0,0,0-1.91,0,5.58,5.58,0,0,1-.56.05c-.25,0-.37-.1-.37-.29a.22.22,0,0,1,.06-.18.26.26,0,0,1,.16-.07.82.82,0,0,1,.23,0,.77.77,0,0,0,.25,0,1.36,1.36,0,0,0,.33-.12.44.44,0,0,0,.17-.19.68.68,0,0,0,.06-.31c0-.12,0-.28,0-.48V2.52a1.93,1.93,0,0,0-.06-.59.49.49,0,0,0-.33-.24,1.47,1.47,0,0,0-.34-.05l-.27,0A.48.48,0,0,1,52,1.56a.24.24,0,0,1-.06-.19c0-.17.09-.25.27-.25a3.15,3.15,0,0,1,.58.07,5.14,5.14,0,0,0,1,.07,5.84,5.84,0,0,0,1-.07,3.46,3.46,0,0,1,.58-.07c.18,0,.27.08.27.25a.25.25,0,0,1,0,.17.34.34,0,0,1-.17.06l-.25,0a1.65,1.65,0,0,0-.3,0c-.23.05-.37.13-.41.25a2,2,0,0,0-.06.6Z"/><path d="M67.38,10.76c0,.75.16,1.12.49,1.12a.51.51,0,0,0,.37-.2c.11-.13.2-.2.28-.2s.12,0,.12.13a.54.54,0,0,1-.15.33,2.59,2.59,0,0,1-.37.37,2.27,2.27,0,0,1-.46.3,1,1,0,0,1-.42.12.64.64,0,0,1-.55-.28,3.07,3.07,0,0,1-.35-.91h-.07a13,13,0,0,1-1.22.92,2.06,2.06,0,0,1-1.11.34,1.29,1.29,0,0,1-1-.39,1.45,1.45,0,0,1-.36-1,2,2,0,0,1,.23-1,3.21,3.21,0,0,1,.71-.86,9.78,9.78,0,0,1,1.18-.88c.47-.3,1-.62,1.62-1V6.14A3.08,3.08,0,0,0,66.15,5a.72.72,0,0,0-.73-.36,1.42,1.42,0,0,0-.88.32,1.74,1.74,0,0,0-.58.78,7.47,7.47,0,0,1-.39.94.73.73,0,0,1-.71.39.32.32,0,0,1-.21-.08.3.3,0,0,1-.09-.23A1.71,1.71,0,0,1,62.79,6a3.18,3.18,0,0,1,.67-.83,4.1,4.1,0,0,1,1-.67,3.12,3.12,0,0,1,1.3-.27,2.11,2.11,0,0,1,.88.15,1,1,0,0,1,.49.41,1.6,1.6,0,0,1,.2.65c0,.25,0,.53,0,.85Zm-1.15-2.5a.53.53,0,0,0-.18.07l-.54.31c-1.22.71-1.84,1.46-1.84,2.25a1.18,1.18,0,0,0,.26.8.85.85,0,0,0,.7.3,1.38,1.38,0,0,0,.57-.13,1.72,1.72,0,0,0,.55-.37,1.83,1.83,0,0,0,.43-.59,2,2,0,0,0,.16-.8V8.44C66.34,8.32,66.3,8.26,66.23,8.26Z"/><path d="M70.62,5.42c0,.13,0,.2.07.2s.13-.08.23-.25a3,3,0,0,1,1.24-1A2.24,2.24,0,0,1,73,4.19a2.49,2.49,0,0,1,1.21.3,2.81,2.81,0,0,1,.94.85,4,4,0,0,1,.63,1.32A6.2,6.2,0,0,1,76,8.39a5.93,5.93,0,0,1-.26,1.86,4.23,4.23,0,0,1-.71,1.39A3.16,3.16,0,0,1,74,12.5a3,3,0,0,1-1.32.3,4.58,4.58,0,0,1-1-.09A5,5,0,0,1,71,12.5l-.49-.21a.86.86,0,0,0-.26-.09.22.22,0,0,0-.17.11l-.14.24-.14.23a.22.22,0,0,1-.18.11c-.11,0-.17-.07-.17-.22a4.44,4.44,0,0,1,.1-.49,4.3,4.3,0,0,0,.1-1V1.82q0-.81-.54-.81h-.2c-.08,0-.12-.06-.12-.17A.21.21,0,0,1,69,.63a4.17,4.17,0,0,0,.5-.13,2.42,2.42,0,0,0,.7-.32A.85.85,0,0,1,70.52,0c.07,0,.1.13.1.4Zm.15,6.14a1.4,1.4,0,0,0,.39.48,2.33,2.33,0,0,0,.58.32,2.3,2.3,0,0,0,.71.11,2,2,0,0,0,1.76-1,5.11,5.11,0,0,0,.68-2.87,5.15,5.15,0,0,0-.63-2.79,1.92,1.92,0,0,0-1.63-1,1.71,1.71,0,0,0-.72.16,2.14,2.14,0,0,0-.66.43,2.37,2.37,0,0,0-.46.66,2.05,2.05,0,0,0-.17.83v4A1.27,1.27,0,0,0,70.77,11.56Z"/><path d="M78.85,11.34a.67.67,0,0,0,.15.51.8.8,0,0,0,.34.18,2.7,2.7,0,0,0,.35.07.17.17,0,0,1,.15.18c0,.09,0,.15-.06.16l-.21,0-.42,0c-.21,0-.49,0-.83,0s-.51,0-.72,0-.38,0-.52,0a.65.65,0,0,1-.22,0,.14.14,0,0,1-.08-.15c0-.1,0-.16.17-.17l.37-.08a1,1,0,0,0,.37-.18.66.66,0,0,0,.17-.51V6.4c0-.44-.19-.66-.56-.66a.71.71,0,0,1-.23,0A.14.14,0,0,1,77,5.56a.25.25,0,0,1,.2-.25A1.42,1.42,0,0,0,77.62,5a3.92,3.92,0,0,0,.75-.52c.17-.16.28-.24.35-.24a.1.1,0,0,1,.11.08,1.29,1.29,0,0,1,0,.25Zm-.09-9.95a1.07,1.07,0,0,1,0,1.23.57.57,0,0,1-.46.26.53.53,0,0,1-.44-.25A1,1,0,0,1,77.68,2a1,1,0,0,1,.19-.63.53.53,0,0,1,.44-.27A.55.55,0,0,1,78.76,1.39Z"/><path d="M82.39,4.23a.43.43,0,0,0,0,.24s.1.07.21.07H84c.11,0,.17,0,.2,0a.38.38,0,0,1,0,.19v.07a.49.49,0,0,1,0,.24.24.24,0,0,1-.19.07H82.63q-.16,0-.21.06a.45.45,0,0,0,0,.24v5.26c0,.91.28,1.37.86,1.37a.89.89,0,0,0,.43-.11,3.56,3.56,0,0,0,.35-.22l.26-.23c.08-.07.13-.11.17-.11s.07.05.07.15a.71.71,0,0,1-.14.29,1.8,1.8,0,0,1-.38.42,2.78,2.78,0,0,1-.55.37,1.53,1.53,0,0,1-.66.16,1.26,1.26,0,0,1-1.09-.56,2.86,2.86,0,0,1-.39-1.64V9.76l.06-4.31a.43.43,0,0,0-.05-.24.25.25,0,0,0-.2-.06h-.27c-.18,0-.27-.06-.27-.16s.09-.22.27-.36A3.78,3.78,0,0,0,81.53,4a3.14,3.14,0,0,0,.53-.81c.09-.23.18-.34.26-.34s.07.07.07.21V4.23Z"/><path d="M90,10.76c0,.75.17,1.12.49,1.12a.5.5,0,0,0,.37-.2c.11-.13.21-.2.28-.2s.12,0,.12.13a.54.54,0,0,1-.15.33,2.16,2.16,0,0,1-.37.37,2,2,0,0,1-.46.3,1,1,0,0,1-.42.12.64.64,0,0,1-.55-.28,3.38,3.38,0,0,1-.35-.91h-.07a13,13,0,0,1-1.22.92,2.06,2.06,0,0,1-1.1.34,1.3,1.3,0,0,1-1-.39,1.45,1.45,0,0,1-.36-1,2.08,2.08,0,0,1,.23-1,3.41,3.41,0,0,1,.71-.86,9.78,9.78,0,0,1,1.18-.88c.47-.3,1-.62,1.62-1V6.14A3.08,3.08,0,0,0,88.72,5,.72.72,0,0,0,88,4.59a1.45,1.45,0,0,0-.88.32,1.74,1.74,0,0,0-.58.78,7.47,7.47,0,0,1-.39.94.72.72,0,0,1-.7.39.33.33,0,0,1-.22-.08.3.3,0,0,1-.09-.23A1.71,1.71,0,0,1,85.36,6,3.18,3.18,0,0,1,86,5.13a4,4,0,0,1,1-.67,3,3,0,0,1,1.29-.27,2.11,2.11,0,0,1,.88.15,1,1,0,0,1,.49.41,1.6,1.6,0,0,1,.2.65c0,.25,0,.53,0,.85ZM88.8,8.26a.74.74,0,0,0-.18.07l-.54.31q-1.83,1.06-1.83,2.25a1.18,1.18,0,0,0,.25.8.87.87,0,0,0,.7.3,1.38,1.38,0,0,0,.57-.13,1.76,1.76,0,0,0,.56-.37,2,2,0,0,0,.42-.59,1.84,1.84,0,0,0,.16-.8V8.44C88.91,8.32,88.87,8.26,88.8,8.26Z"/><path d="M93.54,4.23a.45.45,0,0,0,0,.24s.1.07.21.07h1.33c.11,0,.17,0,.2,0a.38.38,0,0,1,0,.19v.07a.49.49,0,0,1,0,.24.23.23,0,0,1-.19.07H93.77q-.17,0-.21.06a.45.45,0,0,0,0,.24v5.26c0,.91.29,1.37.86,1.37a.89.89,0,0,0,.43-.11,3.79,3.79,0,0,0,.36-.22l.26-.23c.07-.07.12-.11.16-.11s.07.05.07.15a.65.65,0,0,1-.13.29,2.06,2.06,0,0,1-.38.42,2.86,2.86,0,0,1-.56.37,1.53,1.53,0,0,1-.66.16,1.26,1.26,0,0,1-1.09-.56,2.86,2.86,0,0,1-.38-1.64V9.76l.05-4.31a.45.45,0,0,0,0-.24s-.1-.06-.21-.06H92c-.18,0-.27-.06-.27-.16s.09-.22.28-.36A4.16,4.16,0,0,0,92.67,4a2.9,2.9,0,0,0,.53-.81c.09-.23.18-.34.26-.34s.08.07.08.21V4.23Z"/><path d="M1.85,27c0,.13,0,.2.08.2s.12-.09.22-.25a3,3,0,0,1,1.24-1,2.08,2.08,0,0,1,.87-.16,2.48,2.48,0,0,1,1.2.3,2.93,2.93,0,0,1,1,.85A4.25,4.25,0,0,1,7,28.26,6.2,6.2,0,0,1,7.25,30,6,6,0,0,1,7,31.85a4.23,4.23,0,0,1-.71,1.39,3.16,3.16,0,0,1-1.07.86,3,3,0,0,1-1.32.3,4.65,4.65,0,0,1-1-.09,5,5,0,0,1-.73-.21l-.49-.21a.78.78,0,0,0-.26-.09.19.19,0,0,0-.16.11l-.15.24c0,.08-.09.16-.14.23a.22.22,0,0,1-.18.11c-.11,0-.16-.07-.16-.22a2.8,2.8,0,0,1,.1-.49,5,5,0,0,0,.09-1V23.42q0-.81-.54-.81H.13c-.09,0-.13-.06-.13-.17a.21.21,0,0,1,.2-.23,4.17,4.17,0,0,0,.5-.13,2.42,2.42,0,0,0,.7-.32.85.85,0,0,1,.35-.18c.07,0,.1.13.1.4ZM2,33.16a1.43,1.43,0,0,0,.4.48A2.16,2.16,0,0,0,3,34a2.23,2.23,0,0,0,.7.11,2,2,0,0,0,1.76-1,5.11,5.11,0,0,0,.68-2.87,5.12,5.12,0,0,0-.63-2.79,1.88,1.88,0,0,0-1.63-1,1.71,1.71,0,0,0-.72.16,2,2,0,0,0-.65.43,2,2,0,0,0-.46.66,1.9,1.9,0,0,0-.18.83v4A1.28,1.28,0,0,0,2,33.16Z"/><path d="M11.77,32.08q-.82,2.34-1.14,3.54c-.21.81-.33,1.26-.35,1.35s-.11.37-.14.51a1.07,1.07,0,0,1-.12.32.45.45,0,0,1-.25.17,1.72,1.72,0,0,1-.46.05.59.59,0,0,1-.46-.16.67.67,0,0,1-.14-.46A1,1,0,0,1,8.78,37,.46.46,0,0,1,9,36.81a.8.8,0,0,1,.32-.05,4.14,4.14,0,0,0,.45,0c.09,0,.16-.08.21-.2s.12-.29.2-.52a10,10,0,0,0,.37-1.28,5.68,5.68,0,0,0,.1-.68,1.86,1.86,0,0,0-.13-.52l-2-6.41a.89.89,0,0,0-.25-.42.85.85,0,0,0-.29-.14l-.24-.06c-.07,0-.1-.08-.1-.17s0-.14,0-.16a.37.37,0,0,1,.17,0l.34,0a4.1,4.1,0,0,0,.69,0,7.64,7.64,0,0,0,.92,0l.48,0q.24,0,.24.18a.18.18,0,0,1-.14.17l-.29.08a.86.86,0,0,0-.28.11.23.23,0,0,0-.14.23,2.18,2.18,0,0,0,0,.42c0,.15.09.33.15.53l1.28,4.34c0,.16.09.24.12.24s.1-.09.16-.26L12.76,28c.05-.14.09-.29.14-.45A2.06,2.06,0,0,0,13,27a.32.32,0,0,0-.15-.31.92.92,0,0,0-.33-.11l-.32-.06a.18.18,0,0,1-.15-.18c0-.09,0-.14.06-.16a.56.56,0,0,1,.21,0l.34,0a4.79,4.79,0,0,0,.74,0,4.2,4.2,0,0,0,.68,0l.31,0c.13,0,.19.06.19.18s0,.19-.12.19a1.14,1.14,0,0,0-.43.15.78.78,0,0,0-.36.36,4.1,4.1,0,0,0-.35.79Z"/><path d="M20.81,30c0,.65,0,1.15,0,1.51s0,.59,0,.69a8.79,8.79,0,0,1-.21,2A4.61,4.61,0,0,1,19.67,36,4.14,4.14,0,0,1,18.51,37a2.19,2.19,0,0,1-1.12.36.9.9,0,0,1-.7-.27,1,1,0,0,1-.26-.71.77.77,0,0,1,.2-.56.6.6,0,0,1,.45-.21.54.54,0,0,1,.4.15,2.13,2.13,0,0,1,.25.34c.07.12.15.23.22.33a.39.39,0,0,0,.32.15.91.91,0,0,0,.56-.32,2.41,2.41,0,0,0,.52-1,5.37,5.37,0,0,0,.18-1.27c0-.49,0-1.07,0-1.73V24.12a1.72,1.72,0,0,0-.07-.59c0-.1-.16-.18-.37-.24a2,2,0,0,0-.38-.06l-.31,0a.53.53,0,0,1-.21-.06.21.21,0,0,1-.07-.17c0-.17.1-.25.31-.25a3.89,3.89,0,0,1,.65.07,5.81,5.81,0,0,0,1,.07,6.16,6.16,0,0,0,1.06-.07,3.35,3.35,0,0,1,.58-.07c.18,0,.27.08.27.25s-.08.25-.23.24a3,3,0,0,0-.54.06c-.23.06-.37.15-.41.25a1.92,1.92,0,0,0-.06.6Z"/><path d="M32.58,22.72H33a.56.56,0,0,1,.23.08.25.25,0,0,1,.08.18c0,.08,0,.19,0,.34V25c0,.25-.07.38-.2.38a.18.18,0,0,1-.16-.1,2.17,2.17,0,0,1-.12-.26c0-.11-.09-.24-.15-.38a1.79,1.79,0,0,0-.27-.45,2.17,2.17,0,0,0-.8-.7,2.62,2.62,0,0,0-1.09-.2,4.19,4.19,0,0,0-.78.06,1.06,1.06,0,0,0-.48.21.7.7,0,0,0-.23.38,2.26,2.26,0,0,0-.06.57v2.81a.7.7,0,0,0,0,.31.39.39,0,0,0,.28.07h.94a2.83,2.83,0,0,0,.85-.11,1.32,1.32,0,0,0,.48-.25,1.09,1.09,0,0,0,.25-.38,2.6,2.6,0,0,0,.11-.34c0-.1.05-.18.07-.25a.16.16,0,0,1,.16-.09c.15,0,.22.1.22.32s0,.27,0,.53a10.13,10.13,0,0,0,0,1.07c0,.54,0,1,0,1.23s0,.45,0,.5c0,.22-.06.32-.18.32a.16.16,0,0,1-.17-.1q0-.12-.06-.3t-.09-.45a2.05,2.05,0,0,0-.24-.57,1.43,1.43,0,0,0-1.37-.61h-1c-.11,0-.17,0-.2.07a.73.73,0,0,0,0,.25v3.93c0,.19,0,.35,0,.47a.85.85,0,0,0,.08.28.42.42,0,0,0,.2.17,1.29,1.29,0,0,0,.39.12,1.15,1.15,0,0,0,.31,0,1.1,1.1,0,0,1,.27,0,.33.33,0,0,1,.19.07.19.19,0,0,1,.08.18c0,.19-.16.29-.47.29s-.41,0-.7-.05a9.57,9.57,0,0,0-1,0,8.5,8.5,0,0,0-1,0,5.58,5.58,0,0,1-.56.05c-.25,0-.37-.1-.37-.29a.22.22,0,0,1,.06-.18.26.26,0,0,1,.16-.07.82.82,0,0,1,.23,0,.77.77,0,0,0,.25,0c.27-.07.44-.17.49-.31a2.36,2.36,0,0,0,.08-.79V24.12a2,2,0,0,0-.05-.58.5.5,0,0,0-.34-.25,1.26,1.26,0,0,0-.33-.05l-.26,0a.47.47,0,0,1-.19-.06.24.24,0,0,1-.07-.19c0-.17.11-.25.33-.25h5.72Z"/><path d="M38.67,26.12a3.13,3.13,0,0,1,1.14.86,3.93,3.93,0,0,1,.7,1.35,6,6,0,0,1,.24,1.75,5.78,5.78,0,0,1-.25,1.77,4,4,0,0,1-.73,1.37,3.12,3.12,0,0,1-1.16.87,3.67,3.67,0,0,1-1.55.31,3.07,3.07,0,0,1-1.4-.32,3.16,3.16,0,0,1-1.08-.88,4.07,4.07,0,0,1-.7-1.36,5.67,5.67,0,0,1-.26-1.74,5.77,5.77,0,0,1,.26-1.77A4,4,0,0,1,34.62,27a3.37,3.37,0,0,1,1.13-.86,3.15,3.15,0,0,1,1.4-.31A3.56,3.56,0,0,1,38.67,26.12Zm-3.27,1A5.15,5.15,0,0,0,34.74,30a7.33,7.33,0,0,0,.18,1.7,4.56,4.56,0,0,0,.5,1.28,2.32,2.32,0,0,0,.77.81,1.71,1.71,0,0,0,1,.28,2.05,2.05,0,0,0,1.8-1,5.11,5.11,0,0,0,.65-2.82,5.91,5.91,0,0,0-.66-3.07,2,2,0,0,0-1.75-1.08A2,2,0,0,0,35.4,27.12Z"/><path d="M43.14,29c-.15,0-.25.05-.28.15a1.92,1.92,0,0,0-.06.6A5.66,5.66,0,0,0,43,31.36a3.61,3.61,0,0,0,.58,1.18,2.42,2.42,0,0,0,.88.75,2.46,2.46,0,0,0,1.12.26,2.27,2.27,0,0,0,.95-.18,2.93,2.93,0,0,0,.64-.39,3.54,3.54,0,0,0,.39-.4c.1-.12.16-.18.2-.18a.12.12,0,0,1,.13.14,1.07,1.07,0,0,1-.2.52,2.47,2.47,0,0,1-.57.61,3.21,3.21,0,0,1-.9.51,3.2,3.2,0,0,1-2.54-.09,3.16,3.16,0,0,1-1.07-.86,3.91,3.91,0,0,1-.69-1.35,6.11,6.11,0,0,1-.24-1.77A5.34,5.34,0,0,1,42,28.32,4.4,4.4,0,0,1,42.75,27a3.34,3.34,0,0,1,1.13-.85,3.22,3.22,0,0,1,1.37-.3,2.57,2.57,0,0,1,1.13.24,2.47,2.47,0,0,1,.86.62,2.7,2.7,0,0,1,.54.9A2.91,2.91,0,0,1,48,28.62a.34.34,0,0,1-.12.29.73.73,0,0,1-.42.09Zm3.14-.57a.63.63,0,0,0,.52-.66,1.33,1.33,0,0,0-.13-.58,1.69,1.69,0,0,0-.35-.53,1.71,1.71,0,0,0-.53-.38,1.44,1.44,0,0,0-.65-.14,1.76,1.76,0,0,0-.83.21,2.83,2.83,0,0,0-1.17,1.27,1.92,1.92,0,0,0-.18.78.14.14,0,0,0,.06.11.17.17,0,0,0,.14.06h1.48A7.15,7.15,0,0,0,46.28,28.43Z"/><path d="M50.67,27.27c0,.08,0,.13.07.13s.08,0,.13-.09l.32-.47a2.06,2.06,0,0,1,1.6-1,1,1,0,0,1,.7.24.83.83,0,0,1,.26.61.9.9,0,0,1-.19.58.57.57,0,0,1-.43.23.49.49,0,0,1-.31-.11,2.91,2.91,0,0,1-.27-.24l-.28-.25a.61.61,0,0,0-.36-.1.62.62,0,0,0-.4.16,1.36,1.36,0,0,0-.39.51,3.36,3.36,0,0,0-.29.88,6.82,6.82,0,0,0-.11,1.29v3a2.41,2.41,0,0,0,.07.66.61.61,0,0,0,.35.31,1.43,1.43,0,0,0,.41.1l.31,0,.19,0s.06.07.06.15-.1.2-.29.2a6.33,6.33,0,0,1-.64-.05,8.89,8.89,0,0,0-1,0,6.46,6.46,0,0,0-.65,0,3.44,3.44,0,0,1-.51,0,.51.51,0,0,1-.21,0s-.06-.07-.06-.15,0-.18.12-.18a1.57,1.57,0,0,0,.45-.11.44.44,0,0,0,.3-.31,2.9,2.9,0,0,0,.06-.69V27.82a.62.62,0,0,0-.11-.43.58.58,0,0,0-.26-.13h-.24c-.07,0-.11-.05-.11-.13s.07-.17.19-.22a2.43,2.43,0,0,0,.42-.25,3,3,0,0,0,.63-.56c.14-.19.24-.28.31-.28s.09,0,.1.12a2.73,2.73,0,0,1,0,.31Z"/><path d="M57.7,25.88a1.15,1.15,0,0,1,.47.19.46.46,0,0,1,.18.27,1.22,1.22,0,0,1,0,.34v.73c0,.24,0,.36-.16.36s-.17-.07-.18-.22a1.65,1.65,0,0,0-.25-.62,1.67,1.67,0,0,0-.58-.6,1.44,1.44,0,0,0-.72-.19,1.19,1.19,0,0,0-.88.36,1.33,1.33,0,0,0-.36,1,1.3,1.3,0,0,0,.36,1,4.19,4.19,0,0,0,1.08.71l.84.45a3.07,3.07,0,0,1,.65.49,2.13,2.13,0,0,1,.43.63,2.52,2.52,0,0,1,.15.93,2.82,2.82,0,0,1-.7,2,2.62,2.62,0,0,1-2,.74,4.17,4.17,0,0,1-.71-.07,2.59,2.59,0,0,1-.63-.21,1.61,1.61,0,0,1-.46-.31.51.51,0,0,1-.18-.38c0-.1,0-.28,0-.54s0-.59,0-1c0-.21.07-.31.2-.31s.18.1.21.28.1.49.2.91a2.31,2.31,0,0,0,.5,1,1.3,1.3,0,0,0,1,.33,1.6,1.6,0,0,0,1.22-.49,1.88,1.88,0,0,0,.45-1.31,1.54,1.54,0,0,0-.39-1.12,4.21,4.21,0,0,0-1.21-.78,5.25,5.25,0,0,1-1.47-1,1.77,1.77,0,0,1-.47-1.28A2.23,2.23,0,0,1,55,26.46a2.44,2.44,0,0,1,1.81-.65A4,4,0,0,1,57.7,25.88Z"/><path d="M61.7,25.83a.43.43,0,0,0,0,.24c0,.05.1.07.2.07h1.34c.1,0,.17,0,.19,0s0,.09,0,.19v.07a.48.48,0,0,1-.05.24.22.22,0,0,1-.18.07H61.94q-.16,0-.21.06a.43.43,0,0,0,0,.24v5.26c0,.91.29,1.37.87,1.37a.92.92,0,0,0,.43-.11,2.36,2.36,0,0,0,.35-.23,2,2,0,0,0,.26-.22.34.34,0,0,1,.16-.11s.08.05.08.15a.71.71,0,0,1-.14.29,2.06,2.06,0,0,1-.38.42,3.4,3.4,0,0,1-.56.37,1.49,1.49,0,0,1-.65.16A1.26,1.26,0,0,1,61,33.84a2.86,2.86,0,0,1-.39-1.64v-.84l.06-4.31a.43.43,0,0,0,0-.24s-.1-.06-.21-.06h-.27c-.18,0-.27-.06-.27-.16s.1-.22.28-.36a4.14,4.14,0,0,0,.68-.67,3.14,3.14,0,0,0,.53-.81c.09-.23.18-.34.26-.34s.07.07.07.21v1.21Z"/><path d="M66,29c-.16,0-.25.05-.29.15a2,2,0,0,0-.05.6,6.06,6.06,0,0,0,.2,1.61,3.61,3.61,0,0,0,.58,1.18,2.44,2.44,0,0,0,2,1,2.22,2.22,0,0,0,.94-.18A2.93,2.93,0,0,0,70,33a3.74,3.74,0,0,0,.4-.4c.09-.12.16-.18.19-.18s.13.05.13.14a1.07,1.07,0,0,1-.2.52,2.61,2.61,0,0,1-.56.61,3.43,3.43,0,0,1-.91.51,3.18,3.18,0,0,1-2.53-.09,3.06,3.06,0,0,1-1.07-.86,4.11,4.11,0,0,1-.7-1.35,6.11,6.11,0,0,1-.24-1.77,5.33,5.33,0,0,1,.29-1.79A4.38,4.38,0,0,1,65.57,27a3.37,3.37,0,0,1,1.14-.85,3.18,3.18,0,0,1,1.36-.3,2.64,2.64,0,0,1,1.14.24,2.52,2.52,0,0,1,.85.62,2.41,2.41,0,0,1,.54.9,2.91,2.91,0,0,1,.19,1.05.34.34,0,0,1-.12.29.68.68,0,0,1-.42.09Zm3.13-.57a.62.62,0,0,0,.52-.66,1.47,1.47,0,0,0-.12-.58,1.91,1.91,0,0,0-.36-.53,1.6,1.6,0,0,0-.53-.38,1.42,1.42,0,0,0-.64-.14,1.73,1.73,0,0,0-.83.21,2.5,2.5,0,0,0-.69.55,2.83,2.83,0,0,0-.48.72,1.92,1.92,0,0,0-.18.78.16.16,0,0,0,0,.11.2.2,0,0,0,.15.06h1.47A7.09,7.09,0,0,0,69.1,28.43Z"/><path d="M73.49,27.27c0,.08,0,.13.07.13s.08,0,.13-.09l.32-.47a2.07,2.07,0,0,1,1.61-1,1,1,0,0,1,.7.24.82.82,0,0,1,.25.61.85.85,0,0,1-.19.58.56.56,0,0,1-.42.23.52.52,0,0,1-.32-.11,2.91,2.91,0,0,1-.27-.24l-.28-.25a.57.57,0,0,0-.36-.1.64.64,0,0,0-.4.16,1.36,1.36,0,0,0-.39.51,3.78,3.78,0,0,0-.29.88,6.9,6.9,0,0,0-.1,1.29v3a2.07,2.07,0,0,0,.07.66.58.58,0,0,0,.34.31,1.51,1.51,0,0,0,.41.1l.31,0a.69.69,0,0,1,.19,0s.06.07.06.15-.09.2-.29.2S74.27,34,74,34a8.77,8.77,0,0,0-1,0c-.23,0-.45,0-.65,0a3.44,3.44,0,0,1-.51,0,.51.51,0,0,1-.21,0s-.06-.07-.06-.15,0-.18.13-.18a1.73,1.73,0,0,0,.45-.11.45.45,0,0,0,.29-.31,2.38,2.38,0,0,0,.07-.69V27.82a.57.57,0,0,0-.12-.43.55.55,0,0,0-.25-.13h-.25c-.07,0-.1-.05-.1-.13s.06-.17.18-.22a3.21,3.21,0,0,0,1-.81c.14-.19.25-.28.32-.28s.09,0,.09.12a2.73,2.73,0,0,1,0,.31Z"/><path d="M79.79,35.73l5.54-13.34h.6L80.38,35.73Z"/><path d="M91.11,22.72a.93.93,0,0,1,.26,0,.44.44,0,0,1,.17.2l4.79,8c.09.13.15.2.18.2s.09-.09.09-.25V26.14c0-.83,0-1.47,0-1.91a1.32,1.32,0,0,0-.27-.87.37.37,0,0,0-.27-.11l-.31,0a.53.53,0,0,1-.24-.06.17.17,0,0,1-.1-.18c0-.18.14-.27.41-.27a3.47,3.47,0,0,1,.44,0,4.79,4.79,0,0,0,.57,0,5.78,5.78,0,0,0,.63,0,3.87,3.87,0,0,1,.45,0c.28,0,.41.09.41.27s0,.15-.07.18a.49.49,0,0,1-.25,0h-.2a.59.59,0,0,0-.39.12.83.83,0,0,0-.22.42,3.47,3.47,0,0,0-.09.74c0,.31,0,.68,0,1.11v8.46c0,.09,0,.13-.09.13s-.08-.05-.14-.14l-5.76-9.71a.24.24,0,0,0-.18-.12s-.07.1-.07.3v6.39c0,.47,0,.87,0,1.2a3.56,3.56,0,0,0,.08.81,1,1,0,0,0,.2.45.47.47,0,0,0,.37.14h.35c.15,0,.23.09.23.29s-.14.27-.43.27a3.88,3.88,0,0,1-.48,0,4.06,4.06,0,0,0-.51,0A5.35,5.35,0,0,0,90,34c-.19,0-.34,0-.47,0s-.42-.11-.42-.31.09-.25.26-.25h.32a.5.5,0,0,0,.37-.14.94.94,0,0,0,.21-.45,5.25,5.25,0,0,0,.08-.81c0-.33,0-.72,0-1.19V24.12a1.9,1.9,0,0,0-.06-.58.46.46,0,0,0-.3-.25,1.21,1.21,0,0,0-.31-.06l-.24,0a.31.31,0,0,1-.17-.05.24.24,0,0,1-.06-.19c0-.17.08-.25.24-.25Z"/><path d="M105.08,28.08q0,.18.06.18s.08-.07.18-.2l3.09-3.92a.85.85,0,0,0,.22-.51.28.28,0,0,0-.15-.29.8.8,0,0,0-.32-.09,2.21,2.21,0,0,1-.32-.07.18.18,0,0,1-.15-.21.22.22,0,0,1,.25-.25,2.75,2.75,0,0,1,.52.07,4.39,4.39,0,0,0,.89.07,4.73,4.73,0,0,0,.94-.07,2.73,2.73,0,0,1,.53-.07c.16,0,.24.08.24.25a.16.16,0,0,1-.15.18,2.12,2.12,0,0,0-.41.1,2.77,2.77,0,0,0-.66.32,4.05,4.05,0,0,0-.89.86L106.83,27a.31.31,0,0,0-.11.22.19.19,0,0,0,0,.1l3.18,5.13a4.71,4.71,0,0,0,.48.67,1.32,1.32,0,0,0,.48.36.73.73,0,0,0,.24.07l.21,0a.22.22,0,0,1,.14.05s.05.09.05.17-.13.26-.41.26a5.71,5.71,0,0,1-.6-.05,8.65,8.65,0,0,0-1,0,6.21,6.21,0,0,0-.82,0,4,4,0,0,1-.47.05A.46.46,0,0,1,108,34a.22.22,0,0,1-.11-.17c0-.15.14-.23.42-.23s.54-.09.54-.27a1.52,1.52,0,0,0-.14-.48,5.77,5.77,0,0,0-.42-.8L106,28.35c-.06-.08-.1-.13-.12-.13s-.09,0-.13.09l-.48.62a.59.59,0,0,0-.12.19.78.78,0,0,0,0,.24v3c0,.2,0,.35,0,.48a1.13,1.13,0,0,0,.06.31.54.54,0,0,0,.18.19,1.67,1.67,0,0,0,.36.12.78.78,0,0,0,.26,0l.24,0a.42.42,0,0,1,.16.09.24.24,0,0,1,.06.19c0,.17-.13.26-.39.26s-.33,0-.59-.05a11.66,11.66,0,0,0-1.93,0c-.27,0-.46.05-.6.05s-.39-.1-.39-.29a.22.22,0,0,1,.06-.18.29.29,0,0,1,.17-.07.9.9,0,0,1,.24,0,.93.93,0,0,0,.27,0,1.22,1.22,0,0,0,.34-.12.47.47,0,0,0,.19-.18.94.94,0,0,0,.07-.31c0-.12,0-.28,0-.49V24.12a1.6,1.6,0,0,0-.07-.59.49.49,0,0,0-.33-.24,1.4,1.4,0,0,0-.34-.05l-.26,0a.38.38,0,0,1-.18-.06.24.24,0,0,1-.06-.19c0-.17.09-.25.27-.25a3.06,3.06,0,0,1,.57.07,5.21,5.21,0,0,0,1,.07,6,6,0,0,0,1-.07,3.26,3.26,0,0,1,.57-.07c.18,0,.27.08.27.25s0,.14,0,.17a.34.34,0,0,1-.16.06l-.25,0a1.76,1.76,0,0,0-.31,0c-.23.05-.36.13-.41.25a2,2,0,0,0-.06.6Z"/><path d="M113.36,27.27c0,.08,0,.13.07.13s.08,0,.13-.09l.32-.47a2.07,2.07,0,0,1,1.61-1,1,1,0,0,1,.7.24.82.82,0,0,1,.25.61.85.85,0,0,1-.19.58.56.56,0,0,1-.42.23.52.52,0,0,1-.32-.11,2.91,2.91,0,0,1-.27-.24l-.28-.25a.57.57,0,0,0-.36-.1.64.64,0,0,0-.4.16,1.36,1.36,0,0,0-.39.51,3.78,3.78,0,0,0-.29.88,6.9,6.9,0,0,0-.1,1.29v3a2.07,2.07,0,0,0,.07.66.58.58,0,0,0,.34.31,1.51,1.51,0,0,0,.41.1l.31,0a.69.69,0,0,1,.19,0s.06.07.06.15-.09.2-.29.2a6.17,6.17,0,0,1-.63-.05,9.09,9.09,0,0,0-1,0c-.23,0-.45,0-.65,0a3.44,3.44,0,0,1-.51,0,.51.51,0,0,1-.21,0s-.06-.07-.06-.15,0-.18.13-.18a1.73,1.73,0,0,0,.45-.11.45.45,0,0,0,.29-.31,2.38,2.38,0,0,0,.07-.69V27.82a.57.57,0,0,0-.12-.43.55.55,0,0,0-.25-.13h-.25c-.07,0-.1-.05-.1-.13s.06-.17.18-.22a3.21,3.21,0,0,0,1-.81c.14-.19.25-.28.32-.28s.09,0,.09.12a2.73,2.73,0,0,1,0,.31Z"/><path d="M121.59,32.36c0,.75.16,1.12.48,1.12a.48.48,0,0,0,.37-.2c.12-.13.21-.2.28-.2a.12.12,0,0,1,.13.13.51.51,0,0,1-.16.33,2.5,2.5,0,0,1-.36.37,2.59,2.59,0,0,1-.46.3,1,1,0,0,1-.43.12.64.64,0,0,1-.55-.28,3.38,3.38,0,0,1-.35-.91h-.07a14.48,14.48,0,0,1-1.21.92,2.12,2.12,0,0,1-1.11.34,1.31,1.31,0,0,1-1-.39,1.45,1.45,0,0,1-.36-1A2,2,0,0,1,117,32a3,3,0,0,1,.71-.86,8.22,8.22,0,0,1,1.18-.88c.46-.3,1-.62,1.62-1V27.74a2.86,2.86,0,0,0-.18-1.19.71.71,0,0,0-.73-.36,1.45,1.45,0,0,0-.88.32,1.8,1.8,0,0,0-.57.78,8,8,0,0,1-.4.94.71.71,0,0,1-.7.39.35.35,0,0,1-.22-.08.3.3,0,0,1-.09-.23,1.62,1.62,0,0,1,.24-.75,3.13,3.13,0,0,1,.66-.83,4,4,0,0,1,1-.67,3.09,3.09,0,0,1,1.3-.27,2.14,2.14,0,0,1,.88.15,1,1,0,0,1,.48.41,1.46,1.46,0,0,1,.2.65,7.24,7.24,0,0,1,0,.85Zm-1.15-2.5a.64.64,0,0,0-.19.07l-.54.31q-1.83,1.07-1.83,2.25a1.18,1.18,0,0,0,.25.8.87.87,0,0,0,.7.3,1.38,1.38,0,0,0,.57-.13,1.94,1.94,0,0,0,.56-.37,2,2,0,0,0,.42-.59,1.87,1.87,0,0,0,.16-.8V30C120.54,29.92,120.51,29.86,120.44,29.86Z"/><path d="M125.15,27.09c0,.13,0,.2.07.2s.11-.09.2-.26a1.76,1.76,0,0,1,.47-.57,2.89,2.89,0,0,1,.7-.49,1.83,1.83,0,0,1,.75-.16,1.76,1.76,0,0,1,1.2.41,2.7,2.7,0,0,1,.76,1.25h.07a4.76,4.76,0,0,1,1-1.25,1.84,1.84,0,0,1,1.15-.41,1.82,1.82,0,0,1,1.51.74,3.1,3.1,0,0,1,.58,2c0,.06,0,.18,0,.37s0,.43,0,.75v3.28a.73.73,0,0,0,.13.51.67.67,0,0,0,.3.18l.29.08a.15.15,0,0,1,.14.17c0,.08,0,.13-.05.15a.49.49,0,0,1-.2,0l-.38,0a6.37,6.37,0,0,0-.71,0,6.19,6.19,0,0,0-.67,0c-.18,0-.34,0-.46,0a.49.49,0,0,1-.2,0c-.05,0-.07-.07-.07-.15a.15.15,0,0,1,.14-.17l.3-.09a.65.65,0,0,0,.31-.18.71.71,0,0,0,.14-.5V29.33a5.13,5.13,0,0,0-.34-2.1,1.2,1.2,0,0,0-1.2-.7,1.45,1.45,0,0,0-1.19.63,3.34,3.34,0,0,0-.5,1.94l0,3.84a.71.71,0,0,0,.13.5.65.65,0,0,0,.31.18l.3.09a.15.15,0,0,1,.14.17c0,.08,0,.13-.05.15a.49.49,0,0,1-.2,0l-.4,0a6.12,6.12,0,0,0-.69,0,7.31,7.31,0,0,0-.77,0l-.37,0a.43.43,0,0,1-.2,0s-.06-.07-.06-.15a.15.15,0,0,1,.14-.17l.3-.09a.7.7,0,0,0,.29-.18.71.71,0,0,0,.14-.5V29.33a5,5,0,0,0-.35-2.1,1.21,1.21,0,0,0-1.19-.7,1.46,1.46,0,0,0-1.2.66,3,3,0,0,0-.5,1.91v3.84a.72.72,0,0,0,.14.51.77.77,0,0,0,.33.18l.32.08c.1,0,.14.07.14.17s0,.13-.06.15a.51.51,0,0,1-.21,0l-.36,0a7.64,7.64,0,0,0-.8,0,6.32,6.32,0,0,0-.66,0c-.2,0-.37,0-.5,0a.58.58,0,0,1-.21,0s-.06-.07-.06-.15a.15.15,0,0,1,.15-.17l.32-.09a.68.68,0,0,0,.32-.18.66.66,0,0,0,.15-.5V27.82a.58.58,0,0,0-.12-.43.45.45,0,0,0-.25-.12,1.1,1.1,0,0,0-.25,0c-.07,0-.1,0-.1-.13s.06-.18.19-.22a1.32,1.32,0,0,0,.38-.21,2.87,2.87,0,0,0,.69-.6c.14-.19.24-.28.3-.28s.09,0,.1.12a2.73,2.73,0,0,1,0,.31Z"/><path d="M136.89,29c-.16,0-.26.05-.29.15a1.92,1.92,0,0,0-.06.6,5.66,5.66,0,0,0,.21,1.61,3.61,3.61,0,0,0,.58,1.18,2.42,2.42,0,0,0,.88.75,2.49,2.49,0,0,0,1.12.26,2.24,2.24,0,0,0,.95-.18,2.93,2.93,0,0,0,.64-.39,2.84,2.84,0,0,0,.39-.4c.1-.12.17-.18.2-.18s.13.05.13.14a1.07,1.07,0,0,1-.2.52,2.47,2.47,0,0,1-.57.61,3.21,3.21,0,0,1-.9.51,3,3,0,0,1-1.18.22,2.91,2.91,0,0,1-1.35-.31,3.06,3.06,0,0,1-1.07-.86,3.76,3.76,0,0,1-.7-1.35,6.11,6.11,0,0,1-.24-1.77,5.09,5.09,0,0,1,.29-1.79,4.38,4.38,0,0,1,.77-1.36,3.34,3.34,0,0,1,1.13-.85,3.25,3.25,0,0,1,1.37-.3,2.64,2.64,0,0,1,1.14.24,2.52,2.52,0,0,1,.85.62,2.41,2.41,0,0,1,.54.9,2.91,2.91,0,0,1,.19,1.05.34.34,0,0,1-.12.29.68.68,0,0,1-.42.09Zm3.13-.57a.62.62,0,0,0,.52-.66,1.47,1.47,0,0,0-.12-.58,1.91,1.91,0,0,0-.36-.53,1.71,1.71,0,0,0-.53-.38,1.44,1.44,0,0,0-.65-.14,1.72,1.72,0,0,0-.82.21,2.71,2.71,0,0,0-.7.55,3.08,3.08,0,0,0-.47.72,1.92,1.92,0,0,0-.18.78.13.13,0,0,0,0,.11.19.19,0,0,0,.15.06h1.47A7.15,7.15,0,0,0,140,28.43Z"/><path d="M144.41,27.27c0,.08,0,.13.07.13s.08,0,.13-.09l.32-.47a2.07,2.07,0,0,1,1.61-1,1,1,0,0,1,.7.24.86.86,0,0,1,.25.61.85.85,0,0,1-.19.58.56.56,0,0,1-.42.23.52.52,0,0,1-.32-.11,2.91,2.91,0,0,1-.27-.24l-.28-.25a.57.57,0,0,0-.36-.1.64.64,0,0,0-.4.16,1.36,1.36,0,0,0-.39.51,3.36,3.36,0,0,0-.29.88,6.82,6.82,0,0,0-.11,1.29v3a2,2,0,0,0,.08.66.56.56,0,0,0,.34.31,1.43,1.43,0,0,0,.41.1l.31,0a.69.69,0,0,1,.19,0s.06.07.06.15-.1.2-.29.2-.37,0-.64-.05a8.77,8.77,0,0,0-.95,0,6.46,6.46,0,0,0-.65,0,3.44,3.44,0,0,1-.51,0,.51.51,0,0,1-.21,0s-.06-.07-.06-.15,0-.18.13-.18a1.6,1.6,0,0,0,.44-.11.44.44,0,0,0,.3-.31,2.9,2.9,0,0,0,.06-.69V27.82c0-.22,0-.36-.11-.43a.55.55,0,0,0-.25-.13h-.25c-.07,0-.11-.05-.11-.13s.07-.17.19-.22a3.21,3.21,0,0,0,1.05-.81c.14-.19.24-.28.32-.28s.09,0,.09.12a2.73,2.73,0,0,1,0,.31Z"/></g></g></svg>